<svg width="120" height="80" viewBox="0 0 120 80" fill="none" xmlns="http://www.w3.org/2000/svg">
<path d="M51.9815 20.4639V52.0928H50.6144V22.4881L35.9493 52.6832L21.3671 22.1086V52.0928H20V20.4639H21.9471L35.9493 49.8155L50.0759 20.4639H51.9815Z" fill="black"/>
<path d="M59.4697 28.7718C59.0831 28.7718 58.7378 28.6312 58.434 28.35C58.1579 28.0689 58.0198 27.7175 58.0198 27.2957C58.0198 26.9021 58.1579 26.5648 58.434 26.2836C58.7378 26.0025 59.0831 25.8619 59.4697 25.8619C59.8564 25.8619 60.1878 26.0025 60.4639 26.2836C60.7677 26.5648 60.9196 26.9021 60.9196 27.2957C60.9196 27.7175 60.7677 28.0689 60.4639 28.35C60.1878 28.6312 59.8564 28.7718 59.4697 28.7718ZM58.8069 33.1155H60.1325V52.0928H58.8069V33.1155Z" fill="black"/>
<path d="M68.1735 23.6268V52.0928H66.9722V20L89.8398 48.8878V20.4639H91.0411V52.5567L68.1735 23.6268Z" fill="black"/>
<path d="M98.5501 28.7718C98.1634 28.7718 97.8182 28.6312 97.5144 28.35C97.2382 28.0689 97.1001 27.7175 97.1001 27.2957C97.1001 26.9021 97.2382 26.5648 97.5144 26.2836C97.8182 26.0025 98.1634 25.8619 98.5501 25.8619C98.9367 25.8619 99.2681 26.0025 99.5443 26.2836C99.8481 26.5648 100 26.9021 100 27.2957C100 27.7175 99.8481 28.0689 99.5443 28.35C99.2681 28.6312 98.9367 28.7718 98.5501 28.7718ZM97.8872 33.1155H99.2129V52.0928H97.8872V33.1155Z" fill="black"/>
<path fill-rule="evenodd" clip-rule="evenodd" d="M90.368 60H28.2278V58.9457H90.368V60Z" fill="black"/>
</svg>
