<svg width="580" height="152" viewBox="0 0 580 152" fill="none" xmlns="http://www.w3.org/2000/svg">
<path fill-rule="evenodd" clip-rule="evenodd" d="M560.033 27.8872L560.171 28.5379C554.451 29.2558 550.447 29.2558 545.629 31.0731C545.282 29.9513 544.71 29.1212 543.948 28.5379C542.076 30.243 537.898 27.7751 536.113 30.3551C537.118 29.7942 537.881 29.7269 538.904 29.9962L538.765 30.6693L539.181 31.0955C537.552 32.4865 534.137 31.5667 532.473 32.9128C532.56 32.9128 532.664 32.9128 532.751 32.9128L532.612 33.4512L532.751 33.9897C531.399 35.2685 529.18 33.698 528.556 35.4256C528.487 34.3038 527.169 34.8198 526.32 34.7076L526.459 34.0346L526.043 33.6083C526.095 33.2045 526.355 33.0474 526.597 32.8903C526.753 32.5538 524.933 32.6211 525.193 33.6083L524.777 34.0346L524.916 34.7076C523.235 35.5153 520.964 34.6403 520.167 33.9897C519.786 34.8871 517.636 35.5826 517.654 33.9897C517.879 32.9576 519.525 33.7653 519.335 32.1724C518.607 30.6917 517.238 32.2846 516.25 32.1724C516.25 32.6435 516.25 33.1371 516.25 33.6083C516.752 33.8326 517.411 32.5538 517.654 33.6083C516.891 34.6852 515.643 35.1114 515.418 36.8614C516.718 36.7043 518.087 35.964 519.335 37.2204C520.028 36.1883 521.831 36.7043 522.42 36.5024L522.281 37.0409L522.697 37.2204C522.68 37.6915 522.333 37.714 522.42 38.2973C522.801 38.2749 523.027 38.4768 523.252 38.6563L523.113 39.0152L523.252 39.3741C523.287 40.2716 523.772 40.4959 523.252 41.1914C522.68 41.4158 521.415 40.7427 521.293 41.5504C522.472 42.4254 523.911 40.9895 524.933 42.2683V42.6273H525.211C525.141 44.3548 523.477 43.9959 522.975 45.1625C523.997 45.2747 523.789 47.0247 524.933 46.9798C526.095 46.4638 527.412 46.3067 527.724 47.6977C528.937 47.1817 528.764 47.1144 529.96 46.6208C530.844 48.2362 532.785 46.9125 533.6 48.0791C534.102 46.7778 536.373 45.8804 537.24 46.2618C536.91 46.3291 536.928 46.8227 536.962 47.3388C538.193 47.5407 541.001 48.2362 541.989 49.874C542.925 49.2907 543.185 47.8099 544.502 47.6977C545.178 49.5599 549.477 47.7202 548.142 49.515C549.789 49.8291 550.309 48.6849 551.21 48.0567C551.279 48.3484 551.21 48.7746 551.487 48.7746C553.238 46.9124 557.069 47.4958 558.75 47.3163L558.611 47.8547L559.027 48.0343C558.975 48.8195 560.015 48.1913 560.431 48.3932L560.292 49.0663L560.708 49.4925C562.598 50.4573 565.042 48.4605 566.584 48.7746L566.914 49.3131L567.416 49.1336C570.103 48.7297 574.436 47.3612 577.764 46.5984C578.405 46.4862 578.076 47.6528 578.596 47.6753C578.839 47.1368 579.307 46.89 580 46.9573L579.861 47.4958L580 48.0343C579.445 49.3131 578.301 48.7522 577.209 49.1112C574.384 50.0535 570.71 52.5438 568.266 50.9284C567.902 51.6688 567.347 52.1624 566.584 52.3867C565.908 52.5438 565.978 51.7361 565.18 52.0278C563.95 53.3514 561.055 51.5566 559.877 54.204C558.369 54.3386 557.086 54.1815 556.237 53.486C555.803 54.2488 554.989 54.5405 554.278 54.9443C553.983 54.6078 554.191 53.5983 553.446 53.8675C551.869 56.4924 549.026 54.8995 547.57 56.4027C547.172 56.313 547.258 55.6174 547.016 55.3258V54.9668H546.738C546.738 54.2489 547.501 54.4957 547.293 53.5085C546.305 54.0469 544.849 53.9796 543.93 54.5854C543.531 55.9539 544.693 55.2809 544.485 56.4027C543.965 57.3899 543.532 56.4699 543.081 57.1206C543.93 58.4218 545.438 56.8738 545.871 58.9378C548.922 57.9507 553.498 57.3674 555.942 58.9378C556.895 57.6366 557.97 58.6013 559.01 58.5789C561.298 58.534 564.383 56.7392 565.718 56.4027C566.619 56.1783 567.642 56.2905 568.508 56.4027C569.028 56.4924 568.352 57.0084 568.786 57.1206C570.346 56.2905 571.854 54.5181 573.812 55.3033C574.055 54.7649 574.523 54.5181 575.216 54.5854L575.078 55.2585L575.493 55.6847C575.563 56.2008 575.961 56.2905 576.048 56.7616C574.176 57.0757 572.478 58.7135 570.45 58.9378C569.878 59.0051 569.306 58.4667 568.768 58.5789C568.352 58.6686 568.058 59.5436 567.659 59.6558C566.966 59.8801 566.134 59.4987 565.423 59.6558C563.759 59.9923 561.991 61.0019 560.102 61.473C557.294 62.1685 555.717 62.5724 553.117 62.55C552.527 63.1109 551.973 63.739 551.158 63.9858C551.089 63.6941 551.158 63.2679 550.881 63.2679C546.929 64.2102 543.15 64.2102 539.978 65.4442C540.134 63.9859 539.146 65.6236 538.297 65.0852C538.21 65.5788 537.898 65.7806 538.02 66.521C535.281 64.457 533.946 69.4376 531.312 67.239C530.74 68.428 529.405 68.6524 529.076 70.1332C529.44 70.1332 529.336 70.7613 529.631 70.851C531.277 70.0209 532.248 70.5819 534.102 70.1332L534.518 70.3126L534.657 69.7742C534.934 69.7742 534.986 70.0658 535.212 70.1332C537.881 70.178 541.798 68.0691 544.156 70.1332C546.097 69.303 547.761 68.8319 550.309 68.6748C550.707 69.1235 550.326 70.5819 551.435 70.1332C551.834 68.7646 550.673 69.4377 550.881 68.3159C553.047 66.9698 555.439 69.2806 557.034 66.4986C557.589 66.4986 558.143 66.4986 558.715 66.4986L558.576 67.1717L558.992 67.5979C558.75 69.2357 557.519 69.9986 557.589 68.3159C557.363 69.8191 556.029 69.9313 555.075 70.4921L554.937 69.9536L554.798 70.4921C554.434 70.021 553.775 70.021 553.394 70.4921C553.619 71.8607 554.365 70.5145 554.798 71.21H555.075V70.851C555.249 70.8735 555.405 70.8959 555.353 71.21L555.214 71.7485L555.63 71.569C555.647 71.7934 555.665 71.9953 555.907 71.928L555.769 72.2869L555.63 72.6459C554.434 73.0722 552.961 72.9824 551.435 73.7228L551.574 73.1843L551.158 73.0049C551.21 72.4216 549.321 72.2645 549.754 73.3639C549.841 73.3639 549.945 73.3639 550.031 73.3639L549.893 73.7228L549.754 74.0817C549.563 74.5753 549.165 74.7548 548.645 74.7997L548.784 74.2613L548.367 74.0817C548.385 73.8574 548.402 73.6555 548.645 73.7228C548.697 72.9375 547.657 73.5658 547.241 73.3639C547.241 73.7228 547.466 73.7901 547.518 74.0817L547.102 74.2613L547.241 74.7997C547.085 75.6747 545.421 74.6202 545.559 75.8766C551.609 75.4504 561.506 74.3734 568.214 72.2645C569.86 73.8574 572.027 72.2645 573.812 71.9055L573.674 72.444L573.812 72.9824C573.899 73.8125 572.997 73.3863 572.98 74.0817L572.894 74.7099L573.31 74.8895C573.24 75.4055 572.841 75.4952 572.755 75.9663L572.339 76.3926L572.478 77.0657C570.12 77.6041 568.196 78.0977 566.324 77.0657C565.683 77.5593 565.232 78.3221 564.643 78.883C555.11 78.3445 544.78 82.697 533.6 83.2354C533.323 83.9534 533.114 84.7835 532.473 85.0527L532.334 84.5143L531.918 84.6937C532.005 84.0431 530.827 84.6713 531.087 85.4117C531.468 85.4341 531.693 85.2322 531.918 85.0527L532.057 85.5911L532.473 85.4117C533.513 85.3219 534.068 84.5816 534.709 83.9534C534.674 84.8508 534.172 85.0751 534.986 85.4117C535.853 83.6168 537.257 85.7033 538.054 85.4117C538.852 85.12 538.228 84.5815 538.332 84.3348C538.488 83.9534 539.718 83.2578 539.736 83.2578C539.736 83.2578 540.1 84.1328 540.29 83.9758L540.152 84.5143L540.568 84.6937C540.637 85.3219 541.053 85.5238 541.694 85.4117C541.694 85.2995 541.694 85.1649 541.694 85.0527L542.11 84.6264L541.972 83.9534C544.346 82.5624 546.34 84.1553 548.68 81.7771C548.645 82.6746 548.627 83.5271 549.234 83.5944C551.47 81.3509 553.689 82.6296 555.11 82.495C554.746 82.495 554.746 83.5047 555.11 83.5944C555.474 83.5944 555.855 83.5944 556.219 83.5944L556.081 84.1328L556.497 84.3123C554.261 85.0302 551.938 86.5335 550.066 85.7707C549.65 86.3091 549.979 87.8347 548.939 87.5879C548.09 87.4757 548.159 86.1969 547.258 86.1296C547.258 87.229 545.854 86.4886 545.854 87.5879L545.438 87.4084L545.3 87.9469C543.67 88.3732 543.116 90.1904 541.382 90.482C540.966 89.6295 541.469 88.9116 541.105 88.6648C538.8 89.6744 537.76 90.2801 535.506 91.559C534.796 91.5365 535.108 90.1455 534.397 90.1007C533.496 90.8635 531.971 90.8186 531.607 92.2769C531.173 92.0077 531.191 91.1327 530.48 91.2C529.925 91.6711 529.267 92.0525 529.076 93.0173C528.123 91.8955 527.915 92.9051 527.117 93.7352C526.961 93.0846 526.979 92.232 526.563 91.9179C524.517 93.4884 521.623 93.9147 519.005 95.53C526.355 95.7768 535.281 93.2192 542.214 92.9949C543.029 91.716 544.918 91.0205 545.854 92.6359C547.536 91.8955 549.598 90.2129 551.73 91.1776C553.741 88.9565 558.351 90.0782 560.396 87.9244C564.123 87.9469 565.995 86.1072 568.786 85.7482C568.855 86.0399 568.786 86.4661 569.063 86.4661C570.536 85.479 572.2 84.7386 574.367 84.6489L574.228 85.3219L574.644 85.7482C573.206 86.9148 571.143 87.2513 570.45 89.3603L570.034 89.1808L570.172 89.7192L569.756 89.5398L569.618 90.0782C569.427 90.0782 569.254 90.0782 569.063 90.0782C569.08 89.8539 569.098 89.6519 569.34 89.7192C569.063 89.1135 568.162 89.3379 567.659 89.0014C567.59 89.293 567.659 89.7192 567.382 89.7192L566.966 89.8988L567.104 90.4372C565.96 89.8763 565.354 91.0654 565.146 91.1551C562.043 92.6359 556.982 92.4564 555.353 94.4082C556.358 94.8794 555.439 95.5973 555.907 96.5845C554.867 95.8217 554.313 96.6294 553.671 97.3024L553.533 96.764L553.394 97.3024C551.661 97.3697 550.101 97.5268 548.645 98.7607C548.471 97.2127 546.062 98.3793 545.854 99.1197C546.253 99.2094 546.166 99.9049 546.409 100.197L545.993 100.376L546.131 100.915C545.768 101.543 544.797 101.363 544.728 102.373C545.82 102.036 545.438 103.629 546.686 103.091C546.721 102.53 546.651 101.834 547.241 102.014L547.102 102.552L547.518 102.732C547.795 102.732 547.847 103.023 548.073 103.091L547.934 103.45L548.073 103.809C548.021 105.424 547.484 106.434 546.946 107.421C548.437 107.466 547.171 107.488 547.223 108.498C550.881 107.645 553.671 106.411 557.849 105.604L557.71 106.277L558.126 106.703C554.157 109.889 548.09 110.382 543.584 112.85L543.168 112.671L543.306 113.209C542.613 113.389 541.625 113.187 541.625 114.286C542.145 113.994 542.648 113.68 543.306 113.568L543.722 113.748L543.584 113.209C545.768 113.635 546.755 112.491 548.61 112.491L548.471 113.164L548.887 113.591C546.201 115.991 542.232 116.642 539.094 117.562C538.73 117.562 538.834 116.933 538.54 116.844C537.881 118.571 534.709 118.392 534.622 119.738C533.444 118.481 532.542 120.142 530.705 119.379C526.476 122.991 519.387 123.866 514.482 123.731C513.008 125.01 508.9 125.033 507.202 125.19C504.428 125.436 501.499 127.456 499.645 125.908C499.038 126.199 498.691 126.85 497.686 126.626C497.253 126.603 497.461 125.706 496.854 125.908C493.613 129.049 485.518 126.603 481.757 128.084V127.725H481.48C480.96 126.558 478.897 128.981 478.689 127.007C478.308 126.984 478.082 127.186 477.857 127.366C478.048 129.385 480.578 128.892 481.497 128.084V128.443H481.774C482.52 129.295 484.114 129.049 484.86 129.901C484.929 129.161 485.9 129.565 485.969 128.824C495.329 128.959 505.902 127.994 515.054 125.571C515.92 125.302 515.591 126.558 516.458 126.289C517.55 125.01 520.149 126.334 522.056 124.853C522.801 125.683 524.951 125.504 526.251 124.853C526.632 124.651 526.649 123.866 527.083 123.776C529.301 123.283 531.035 124.404 533.236 123.417C533.496 122.767 533.912 122.363 534.068 121.6C535.177 122.587 535.61 122.049 536.581 121.241C539.372 121.892 540.013 120.097 543.012 120.142L542.873 120.68L543.289 120.86C543.133 121.376 542.856 121.735 542.457 121.937C542.7 122.475 543.168 122.722 543.861 122.654L543.722 123.305L544.138 123.731C542.908 126.199 539.025 123.731 538.262 126.267C535.922 124.001 532.941 127.725 529.873 126.985C529.492 129.25 526.129 127.702 525.679 129.879C525.245 128.981 523.564 129.52 523.72 130.597C522.853 130.866 523.183 129.609 522.316 129.879C519.109 131.92 515.314 134.568 512.8 136.385C513.164 137.26 513.84 135.981 513.927 136.744C512.679 137.417 511.223 138.943 509.455 137.821L509.594 137.148L509.178 136.721C509.247 135.891 509.108 135.353 508.623 135.263C508.71 136.834 507.687 136.946 507.219 137.798C506.612 136.228 504.914 138.359 504.429 139.234C504.359 138.965 504.411 138.494 504.151 138.516C502.21 138.673 501.43 139.414 499.957 140.334C499.055 140.648 499.575 139.145 498.847 139.257C498.57 140.109 497.877 140.423 496.889 140.334C496.317 140.109 496.802 138.494 495.762 138.875C495.554 140.782 492.659 141.119 491.29 140.334C491.515 140.244 491.845 140.334 491.845 139.975C488.465 140.468 488.049 139.773 485.414 140.693C484.981 140.289 484.825 139.526 484.01 139.593C481.116 141.276 479.573 139.795 476.731 140.693C476.263 139.548 477.77 139.212 477.008 138.875C475.015 139.077 472.865 139.459 471.132 140.693C470.473 140.58 470.612 139.436 469.728 139.593C467.353 141.052 465.308 138.83 463.298 141.051C462.067 141.186 461.859 140.02 460.784 139.975C458.739 141.455 455.463 138.494 452.95 139.975C452.412 139.818 452.239 139.189 451.546 139.257C450.956 139.459 450.749 140.154 449.865 139.975C447.507 138.135 444.318 141.321 441.753 138.516C440.366 138.045 440.383 139.391 439.239 139.234C438.615 138.718 439.586 138.359 438.962 138.157C437.662 139.481 436.171 136.609 435.322 138.516C434.161 136.856 434.317 137.911 432.809 136.699C431.492 137.484 431.422 137.753 430.018 137.058C429.984 137.619 429.932 137.776 429.464 137.776C427.505 137.798 425.858 135.577 423.588 137.417C423.102 136.228 422.305 137.17 421.629 137.058C421.386 137.013 420.936 136.34 420.503 136.34C420.381 136.34 420.156 136.856 419.671 136.699C419.307 136.587 419.185 136.026 418.839 135.981C418.093 135.891 417.209 136.43 416.325 136.34C415.545 136.25 414.713 135.757 413.812 135.622C412.425 135.398 410.935 135.779 409.617 135.622C408.491 135.488 407.451 134.792 406.532 134.904C404.816 135.106 401.991 134.613 400.102 134.186C399.183 134.209 398.715 134.792 397.588 134.545C397.831 133.379 397.155 133.423 396.756 133.109C396.063 135.061 392.909 131.494 392.562 134.186C390.985 133.648 390.101 133.446 388.645 133.827C387.83 132.436 385.889 132.593 384.727 133.468C382.769 132.548 381.989 132.122 379.978 131.651C379.424 132.504 378.903 133.379 377.742 133.468C377.17 133.356 376.997 132.75 376.616 132.391C375.038 132.907 373.34 132.84 372.698 131.315C369.492 131.875 367.966 130.193 364.864 132.391C363.581 131.247 362.143 132.548 360.947 131.315C360.288 131.831 360.271 131.853 360.115 132.391C359.837 131.292 359.456 130.35 358.433 130.215C357.948 130.956 358.641 130.933 358.156 131.674C357.081 130.417 354.897 131.225 353.407 129.856C352.973 129.879 353.181 130.776 352.575 130.574C350.755 128.488 349.455 132.728 347.271 131.674C347.323 131.247 347.722 129.587 346.994 129.138C345.416 129.901 343.787 129.049 342.799 130.956C341.776 130.013 341.031 130.552 340.286 131.674C340.268 131.18 340.424 130.866 340.563 130.574C338.917 130.821 338.033 129.856 337.201 130.933C335.259 129.901 333.613 130.754 332.174 130.933C332.105 130.641 332.174 130.215 331.897 130.215C326.593 129.767 320.7 131.135 316.228 129.856C316.037 130.35 315.638 130.529 315.101 130.574C313.628 128.959 312.882 129.318 311.184 130.215C310.664 130.17 310.993 129.026 310.352 129.116C308.532 129.901 306.331 131.27 304.199 130.215C303.679 130.26 304.008 131.404 303.367 131.292C303.419 130.507 303.141 130.148 302.535 130.215C300.853 130.529 300.229 130.26 298.895 129.497C294.666 131.247 292.152 130.731 287.143 129.856C287.074 130.597 285.912 129.946 286.016 130.933C283.988 130.215 282.498 129.811 279.309 129.475C279.239 130.597 278.321 130.597 277.627 130.933C275.911 129.968 274.975 130.484 273.433 130.574C269.047 130.843 260.78 130.911 256.1 130.574C254.574 130.462 253.205 129.52 252.737 130.933C251.923 128.712 250.727 130.888 249.097 131.292C248.733 130.933 248.543 130.305 247.971 130.215C237.623 130.372 227.223 131.696 216.65 130.574C215.211 132.481 212.507 130.44 209.942 130.574C209.492 130.597 209.024 131.225 208.538 131.292C205.072 131.831 202.402 130.597 199.872 131.651C196.995 130.327 193.667 131.315 190.928 131.292C188.813 131.27 186.231 132.01 184.497 131.651C183.995 131.561 183.579 130.978 183.094 130.933C182.314 130.866 181.672 131.315 180.858 131.292C180.251 131.27 179.887 130.619 179.176 130.574C178.414 130.507 177.46 131.27 176.663 131.292C169.799 131.584 164.374 130.956 158.758 131.292C158.1 131.337 157.458 132.01 156.8 132.01C152.778 132.1 148.896 131.606 145.048 132.01L144.632 131.831L144.77 132.369C143.956 133.603 140.177 131.875 138.895 133.446C133.331 131.404 123.763 133.087 115.963 132.728C115.894 133.02 115.738 133.154 115.409 133.087L115.131 132.907L114.854 133.087C110.902 132.414 105.789 132.975 101.716 133.087C99.7915 133.132 97.7636 132.638 95.8396 132.728C94.7996 132.773 93.569 133.379 92.477 133.446C89.1838 133.67 86.9652 132.907 84.3652 134.523C82.9093 133.109 82.0253 134.545 80.448 133.805C80.292 134.545 79.1307 133.895 79.8934 134.882C77.7961 133.827 75.1961 133.872 73.7402 134.882C74.1735 137.372 76.9988 137.125 78.2121 135.959C80.9333 135.757 81.6787 137.058 83.5333 135.959C83.5506 136.564 83.6373 136.609 84.0879 136.677C85.8385 136.946 87.7452 136.946 88.8372 136.318C89.2011 136.318 89.0971 136.946 89.3918 137.036C89.1491 135.869 90.3105 136.52 90.5185 135.959C90.9518 136.744 92.009 137.776 92.477 136.318C93.205 136.946 95.4236 138.494 95.8396 136.318C99.1849 136.789 101.958 135.757 104.783 135.959C103.622 135.869 105.026 137.507 105.615 137.417C105.685 137.125 105.841 136.991 106.17 137.058L106.309 136.879L106.447 136.699C106.569 137.507 107.938 136.991 108.129 136.699C108.129 136.587 108.129 136.452 108.129 136.34L108.545 136.52L108.406 135.981C108.493 135.981 108.597 135.981 108.683 135.981C109.047 135.241 109.134 134.141 110.087 134.164C110.139 135.555 111.595 135.106 112.046 135.981C114.143 135.802 114.923 136.452 116.795 136.699C116.067 135.129 119.655 135.914 117.904 137.058C120.244 139.279 121.995 135.039 122.376 136.699C122.81 136.183 122.931 135.241 124.058 135.6C124.89 137.125 125.912 136.183 126.294 137.058C126.935 136.856 125.947 136.497 126.571 135.981C128.46 136.856 128.945 134.927 129.361 133.446C131.355 133.603 131.944 136.407 134.111 135.263C134.787 135.6 134.856 136.721 136.069 136.34C137.369 136.228 136.693 133.536 138.028 133.446C138.999 133.76 138.548 135.914 139.709 135.981C140.056 135.824 140.281 135.51 140.264 134.904C141.304 135.757 142.517 135.106 143.627 136.363C145.013 135.241 146.469 135.824 147.821 135.645C148.878 135.51 149.832 134.254 150.334 134.186C150.716 134.141 151.6 135.555 152.016 134.545C153.714 136.811 154.078 134.814 155.378 136.004C154.529 135.555 154.477 134.478 155.101 133.468C155.136 134.141 156.054 133.693 156.227 134.186L156.089 134.859L156.505 135.286C156.505 135.645 156.279 135.712 156.227 136.004C157.371 136.654 159.209 136.34 159.867 136.004C159.885 135.488 159.053 135.6 159.59 135.286H159.867V134.927C160.717 134.949 161.358 134.276 162.103 134.927C161.757 134.972 161.445 135.039 161.549 135.645C165.154 135.196 167.113 136.25 169.938 135.286C169.626 135.196 169.262 134.68 169.661 134.568C170.492 135.959 172.156 135.891 172.728 136.744C173.647 134.343 176.438 135.151 178.327 136.026C180.528 133.625 183.891 136.587 186.439 134.949C187.375 136.385 190.252 135.398 191.76 134.949C193.528 136.497 196.613 134.792 198.191 136.026C199.265 134.68 201.501 136.542 202.662 134.949C209.526 136.475 218.747 133.984 224.762 136.026C226.998 135.196 228.384 135.757 230.638 135.308C231.002 135.667 231.192 136.295 231.747 136.385C232.146 135.802 232.718 135.465 233.428 135.308C236.011 135.846 238.316 137.013 240.691 135.308C240.76 135.936 241.176 136.138 241.817 136.026C243.88 135.151 245.665 135.375 247.416 136.385C247.849 136.34 247.641 135.465 248.248 135.667C250.675 137.17 252.495 134.859 254.124 136.766C255.129 136.744 256.394 137.058 256.637 136.048C256.793 136.923 256.88 137.911 257.764 137.866C258.977 135.847 260.45 136.318 262.513 135.33L262.652 135.869L262.79 135.33C265.512 138.987 271.838 136.385 278.165 137.148C278.095 136.475 278.477 136.34 278.442 135.689C279.534 135.488 279.153 137.193 279.846 137.507C284.162 136.071 287.594 137.866 292.43 136.789C292.395 135.891 292.378 135.039 292.984 134.972C294.7 136.295 296.382 136.789 297.733 134.972C299.103 135.532 299.519 135.061 301.096 135.33L300.957 136.004L301.373 136.43C301.425 136.968 302.049 136.766 302.5 136.789L302.639 137.327L302.777 136.789C303.627 136.789 304.719 137.013 305.291 138.247C305.585 137.417 306.14 136.923 306.972 136.789C308.272 137.955 309.884 136.587 311.166 137.866C311.582 135.824 316.557 138.382 314.529 135.689C315.396 136.138 316.002 135.218 316.765 135.33C317.233 135.398 317.528 136.071 317.892 136.048C317.892 136.048 318.117 135.353 318.169 135.33C318.377 135.218 319.261 135.375 319.573 135.33C321.896 135.039 323.109 136.811 325.726 136.789C325.744 136.161 325.657 135.667 325.449 135.33C327.511 135.241 327.927 136.654 329.366 135.33C330.423 138.225 334.098 135.891 336.351 136.789C336.733 136.564 336.386 135.398 336.906 135.33C338.743 135.353 341.499 136.228 343.614 135.33C344.428 136.811 347.34 135.667 348.64 135.689C348.502 136.834 349.351 136.721 349.767 137.148C350.46 136.138 352.679 136.52 353.407 137.507C353.805 137.417 353.719 136.721 353.961 136.43C358.312 136.856 361.068 138.202 364.864 137.148C365.297 137.193 365.089 138.068 365.696 137.866C366.251 137.866 366.06 136.879 366.805 137.148C374.796 139.503 381.434 137.753 388.333 140.401C389.598 138.83 392.181 141.164 393.082 139.683C394.78 140.805 397.138 140.042 399.235 140.401C400.171 140.558 401.454 141.59 402.32 141.478C402.424 141.455 402.91 140.693 403.152 140.76C403.17 141.343 403.239 141.433 403.707 141.478C406.03 141.747 408.352 141.545 410.415 141.837C411.628 142.016 412.616 143.25 413.777 142.196C414.609 142.196 414.731 143.138 415.459 143.273C415.233 141.769 417.192 143.093 417.417 142.196C417.833 142.622 417.851 143.564 418.249 144.013C418.163 143.295 418.631 143.295 418.804 142.936C421.525 142.914 426.673 144.641 430.556 143.295C432.133 144.282 435.183 144.192 437.541 143.654C438.494 144.686 440.661 144.686 442.567 144.753C445.115 144.843 448.027 145.314 450.679 145.471C451.996 145.539 452.984 144.866 454.042 144.753C455.342 144.619 456.503 145.382 457.127 145.471C458.635 145.718 460.472 144.619 461.322 145.112C460.975 145.785 466.435 145.426 466.92 145.112C466.313 146.144 467.492 144.753 467.475 144.753C468.151 144.888 468.844 145.718 469.711 145.83C470.092 145.875 470.196 145.135 470.543 145.112C470.664 145.09 471.201 145.853 471.652 145.83C472.449 145.808 473.056 145.561 473.611 146.189C473.836 145.112 475.846 145.471 476.973 145.83C476.921 145.045 477.199 144.686 477.805 144.753C478.221 144.821 477.424 146.705 478.637 146.571C479.4 146.234 478.1 145.247 479.192 145.112C480.318 144.955 480.96 145.157 481.982 145.471C482.918 145.763 485.033 146.055 485.622 145.471C485.744 145.359 485.328 144.843 485.345 144.753C485.518 143.968 488.829 144.507 489.539 145.471C490.735 142.824 494.999 147.446 494.843 143.654C498.327 143.856 500.026 142.555 504.064 142.936C504.168 143.205 504.082 144.148 504.342 144.394C504.498 144.529 507.652 144.237 509.368 144.035C511.76 143.744 514.222 142.398 515.522 143.676C517.186 141.971 520.375 142.241 522.229 140.782V141.141H522.507C523.72 140.67 525.211 140.535 526.701 140.423L526.563 141.074L526.979 141.5C526.979 142.577 526.251 142.734 526.147 143.676C526.788 144.17 527.204 142.734 527.273 143.676C527.551 145.09 525.488 146.167 525.037 144.035C524.292 145.045 524.431 143.609 523.633 143.676C522.541 144.439 521.64 143.946 519.716 144.035C519.473 144.933 519.057 145.606 518.035 145.494C516.752 142.667 513.858 148.231 514.395 146.571L514.534 146.032L514.118 146.212C510.738 143.452 507.895 149.061 505.174 146.93C505 148.276 504.394 149.039 504.047 150.183C502.661 150.452 502.557 150.474 501.534 149.824L501.673 149.285L501.257 149.465C501.187 149.173 501.257 148.747 500.979 148.747C500.546 149.151 500.39 149.936 499.575 149.824C498.899 149.33 499.402 149.106 499.021 148.747C498.761 149.622 497.894 149.712 497.062 149.824C495.433 148.186 494.358 149.51 493.699 151.282C493.179 150.564 493.439 149.734 493.145 149.465C491.134 150.362 489.505 151.753 486.992 152C486.714 150.676 488.24 151.686 488.118 150.542C485.553 150.205 483.872 150.609 480.838 150.901C480.457 150.071 481.566 149.532 480.838 149.442C480.076 149.173 481.046 151.147 480.284 150.901C479.452 150.407 480.405 149.375 479.157 149.083C478.706 149.353 479.226 150.856 478.325 150.542C478.03 148.882 476.904 150.721 475.812 150.901C474.98 150.071 473.42 150.744 472.449 150.901C472.484 150.003 472.501 149.151 471.895 149.083C471.652 149.51 471.531 150.048 471.617 150.901C470.456 150.699 469.607 148.612 468.549 149.442C468.549 149.913 469.035 149.779 469.104 150.16C467.544 151.215 467.527 150.228 466.036 149.801C465.343 151.304 462.829 150.272 463.245 149.083C462.206 149.353 460.767 149.846 460.16 148.724C459.12 151.888 457.179 150.968 455.688 149.083C455.168 149.734 456.018 150.138 455.411 150.901C454.752 150.788 454.354 150.317 453.452 150.542C453.088 149.106 454.371 149.801 454.007 148.365C453.799 147.535 453.158 147.289 452.603 146.93C452.014 148.074 451.182 148.343 451.771 150.183C449.708 150.25 450.506 150.295 448.409 149.465C448.148 151.282 446.017 150.699 445.323 152C444.821 151.327 444.561 150.317 443.919 149.824C442.221 149.532 440.193 150.407 438.893 148.365C438.078 150.407 435.409 149.398 434.698 148.365C433.953 150.878 433.312 147.849 432.185 148.724C432.133 148.186 432.289 147.401 431.908 147.289C431.388 147.378 431.284 146.885 430.798 146.93C430.625 148.074 431.318 148.051 430.798 148.724C428.892 149.285 428.441 148.545 426.881 148.007C426.985 148.523 427.21 148.612 426.881 149.083C425.512 147.76 423.224 149.689 422.964 147.266L423.033 146.638L422.687 146.189C422.444 145.651 421.976 145.404 421.283 145.471C421.3 145.942 421.647 145.965 421.56 146.548C421.751 146.548 421.924 146.548 422.115 146.548L421.976 147.221L422.392 147.648C422.374 148.253 422.288 148.298 421.837 148.365C420.034 148.657 417.729 148.074 416.516 146.93C415.736 148.635 412.72 147.737 412.044 146.212C411.212 146.773 410.519 147.176 409.808 147.311C409.392 147.378 407.798 147.49 407.295 147.311C406.55 147.019 406.099 145.628 405.336 145.494C405.51 145.516 404.366 146.189 404.21 146.212C402.754 146.481 401.419 145.516 400.292 146.212C399.738 145.539 399.859 144.91 398.888 145.494C398.49 144.933 398.507 143.811 398.056 143.318C396.739 146.189 394.642 144.282 392.458 144.417L392.596 143.878L392.181 143.699C392.285 142.375 390.066 141.814 389.945 142.981L389.529 143.16L389.667 143.699C388.107 143.003 385.525 144.664 384.346 142.981C384.086 145.135 382.214 143.138 381.278 144.058C380.862 143.632 380.845 142.689 380.446 142.241C379.943 142.667 378.262 143.744 376.806 144.058C376.824 142.33 375.142 142.824 374.293 142.241C374.345 144.192 372.23 143.16 371.78 142.6C369.63 143.587 368.4 143.093 367.03 141.882C365.384 143.789 361.692 142.42 360.323 140.805C359.231 142.757 357.653 142.689 356.405 141.164C355.019 142.959 353.407 140.177 352.211 141.882C351.483 141.994 351.986 140.468 351.084 140.805C350.356 140.693 350.859 142.218 349.975 141.882C347.34 139.773 345.104 141.814 342.695 140.446C342.418 142.241 340.771 140.535 339.61 141.523C339.627 140.894 339.402 140.603 339.055 140.446C337.079 141.5 333.526 139.481 331.498 141.523C330.631 141.792 330.961 140.536 330.094 140.805C329.799 141.141 330.007 142.128 329.262 141.882C328.187 141.949 328.517 140.199 327.303 140.446C326.731 140.648 326.402 141.209 325.899 141.523C325.518 140.087 323.508 141.455 323.109 141.523C320.648 141.882 318.602 140.939 316.956 141.882C316.592 141.882 316.696 141.253 316.401 141.164C315.188 141.321 314.598 142.846 314.165 142.981C312.068 139.862 307.596 141.164 304.649 140.446C304.649 140.805 304.649 141.164 304.649 141.523C302.136 141.096 300.767 141.321 299.051 139.705C297.456 141.321 294.371 140.984 292.066 141.164C291.702 141.186 291.476 141.837 291.234 141.882C290.471 142.016 289.864 140.67 289.275 141.523C289.275 141.882 289.5 141.949 289.552 142.241C288.998 142.353 288.998 141.747 288.72 141.523C285.358 142.914 284.127 139.885 280.609 140.446C280.626 140.939 280.47 141.231 280.331 141.523C279.43 141.837 279.742 140.58 279.205 140.446C278.407 141.478 277.818 140.558 276.969 141.523C277.038 140.693 276.899 140.154 276.414 140.064C274.559 141.792 272.133 143.564 269.983 141.141C264.662 142.712 258.526 140.939 252.651 142.218C252.616 141.769 252.564 141.366 252.096 141.5C250.276 142.241 248.127 140.737 246.775 142.959C246.549 142.151 245.804 142.061 245.371 141.5C241.228 141.837 238.715 140.132 234.468 141.859C234.416 141.433 234.52 140.827 234.191 140.782C232.25 143.407 229.32 140.311 226.929 142.218C224.45 140.244 221.313 142.33 218.539 142.218C218.245 142.218 217.673 141.545 217.413 141.5C215.575 141.164 214.033 141.814 212.386 141.859C211.606 140.962 209.925 140.648 209.318 141.5C208.556 141.298 208.625 141.209 207.637 140.782C207.204 141.007 207.412 141.455 206.805 141.5C202.576 141.859 196.267 140.244 192.263 142.218C191.985 141.612 191.067 141.814 190.581 141.5C190.651 141.949 191.015 142.241 190.304 142.218C189.611 143.093 189.368 141.298 188.345 141.5C186.56 141.747 184.966 142.106 183.024 141.141C180.598 142.33 177.582 142.263 175.19 140.423C172.572 141.231 169.765 140.894 167.633 141.5C166.541 139.391 164.339 141.612 162.034 141.859C160.318 140.939 157.58 141.186 156.158 142.218C154.564 140.895 150.993 142.936 148.324 141.5C148.532 142.487 147.006 141.231 147.214 142.218C146.348 142.487 146.677 141.231 145.81 141.5C143.938 142.622 141.893 141.702 139.935 141.859C139.432 141.904 139.12 142.487 138.531 142.577C137.005 142.824 135.22 142.308 133.781 142.218C133.348 142.487 133.365 143.362 132.655 143.295C132.221 142.779 131.563 142.532 130.973 142.218C129.916 143.385 126.588 141.59 125.947 143.295C124.127 142.196 122.186 143.205 120.348 143.295C118.39 143.385 116.535 142.577 114.75 142.936C113.519 143.183 112.635 144.708 111.387 144.013C111.821 143.923 111.422 143.407 111.11 143.295C103.31 143.475 100.242 143.542 90.9691 143.654C90.9171 144.08 91.0211 144.686 90.6917 144.753C89.6171 144.327 88.3518 145.539 87.0519 144.753C86.9652 144.035 87.4332 144.035 87.6065 143.654C85.9599 144.17 84.8852 144.013 83.1346 143.654C83.0306 144.17 82.8053 144.26 83.1346 144.753C82.8573 144.753 82.5799 144.753 82.3026 144.753L82.164 144.215L81.748 144.394C73.8269 145.83 63.5484 144.35 54.8993 146.212C53.5126 144.462 50.6874 146.458 49.3008 145.135C44.2049 147.378 39.005 144.821 33.6318 145.494L33.2158 145.314L32.7998 145.494C31.6558 144.821 30.1479 144.215 29.4372 145.853L29.0212 145.673L29.1599 146.212C28.4146 147.221 28.1892 145.942 27.4786 145.853C26.8026 147.782 24.688 146.279 24.1161 146.212C22.5734 146.055 20.0775 145.965 18.7948 146.212L18.6561 145.673L18.2402 145.853C17.6509 143.632 16.5589 146.144 15.1723 144.776C15.7269 145.606 15.1029 145.18 14.8949 145.853C12.7977 143.699 11.2724 144.664 8.1871 145.135C6.7658 143.856 7.89244 142.869 8.1871 141.141C8.1351 139.638 6.57513 140.109 5.95114 139.324C6.43646 137.978 6.74846 138.292 7.63244 137.888C7.44177 136.789 6.66179 136.475 5.67381 136.43C5.65648 135.241 5.20581 134.635 5.39648 133.177C5.81247 132.75 6.64444 132.863 6.52311 131.741C5.55246 131.494 4.11385 132.055 3.4552 130.641C3.22987 129.632 3.85386 129.699 3.73253 128.824C3.29921 127.59 1.89523 127.59 1.7739 125.93C3.4032 125.975 4.00985 124.741 5.13649 124.113C3.92319 123.036 3.14319 122.453 1.21924 123.036L1.35793 122.497L0.941904 122.318C0.231254 118.571 2.4499 117.853 3.73253 115.812C3.6632 115.52 3.50719 115.385 3.17786 115.453C4.3045 113.658 2.84854 111.325 1.49657 112.917C1.98189 111.571 1.34057 112.357 1.21924 111.1L1.35793 110.741L1.21924 110.382C1.54856 109.709 1.63525 108.745 2.32857 108.565C0.959269 108.116 0.907255 109.395 0.0926078 109.664C-0.479379 107.331 1.73926 104.594 2.88323 105.693C2.12059 103.607 3.61119 104.818 3.99251 103.517C3.0912 103.36 3.03921 102.104 2.58855 101.341C3.00454 100.556 3.85386 100.331 4.26985 99.5235C3.92319 99.1645 3.99253 98.0653 4.54718 97.3473C4.06186 97.3698 3.83651 97.0557 3.71518 96.6294C4.82449 96.9883 5.74314 94.9243 7.3551 94.8121C6.33246 94.341 6.80043 94.2288 6.52311 92.9949C6.43644 92.9949 6.33244 92.9949 6.24577 92.9949L6.38447 92.4564L5.96849 92.2769C4.49519 90.6391 5.79512 88.1937 6.24577 86.1296C5.70845 86.0399 5.6218 86.5334 5.11914 86.4885C4.98048 85.2321 5.81245 85.2322 6.24577 84.6713C4.42582 85.2097 4.99783 81.979 3.73253 82.854C3.8192 82.0239 3.68053 81.463 3.4552 81.0367C5.04983 80.7226 4.46051 79.7579 5.13649 78.5015L5.55247 78.6811L5.41383 78.1426C6.57513 78.0752 6.93912 76.976 6.81779 75.2484C7.84043 75.2484 8.30843 74.5305 8.77642 73.7901C8.34309 72.7581 6.95645 72.7581 6.54046 72.7132C6.90445 72.601 6.10714 69.7517 6.81779 69.1011C6.64446 69.0786 6.48846 69.0338 6.54046 68.7422L6.6791 68.3832L6.54046 68.0242C8.20442 68.0018 7.94444 65.489 9.05375 64.7711L9.46972 64.9506L9.33103 64.4121C9.85102 63.4922 10.787 62.9089 11.2897 62.9763C11.203 62.2583 11.671 62.2583 11.8443 61.8993C11.7057 60.7776 10.5443 60.8 11.567 60.0821L11.983 60.2615L11.8443 59.7231C12.6416 58.893 13.0056 60.0596 14.3576 60.0821C14.2536 59.566 14.0283 59.4763 14.3576 59.0051C13.7683 58.2199 13.5603 59.1846 12.6763 59.0051C12.191 57.7263 13.6123 57.143 12.9537 56.8289C11.3244 56.4026 10.527 54.8994 8.75907 54.6527L9.17504 54.4732L9.0364 53.9348C9.01907 53.3066 9.10574 52.813 9.31373 52.4765L9.7297 52.6559L9.59107 52.1175C9.81639 50.9733 10.059 49.8291 10.995 49.5823C10.1457 48.8195 11.151 47.1592 11.5497 45.9702C12.6243 46.8451 14.8776 46.3292 14.6176 44.8933C16.5242 45.0728 17.5122 44.0632 18.5349 43.076C17.7722 42.5376 17.9455 42.3132 18.8121 42.7171C18.7428 42.2011 18.3615 42.1113 18.2575 41.6401C19.7308 40.4062 20.4934 40.5857 20.4934 38.387C19.3668 37.4671 17.9975 39.0601 17.7029 37.3101C17.8762 36.6595 19.4708 36.0089 18.8121 35.4929C18.2055 34.5506 17.8762 36.6146 17.1308 35.4929C17.0442 34.057 17.6682 33.541 18.8121 33.6756C20.1121 30.0635 23.492 29.0988 25.7973 26.7879C26.6986 26.586 27.0973 27.0347 27.7559 27.1469C27.1493 26.3841 27.8946 26.1148 27.7559 24.9706C31.0145 24.1181 34.1345 23.086 37.2717 22.0764C37.3064 22.7495 38.1903 22.3233 38.1037 23.1534L37.965 23.6918L38.381 23.5124C38.8663 25.3745 41.189 24.2751 42.2983 24.2302C42.3156 23.602 42.0903 23.3104 41.7436 23.1534L41.8823 22.6149L41.4663 22.4354C42.3156 21.6278 43.4769 20.8425 45.1062 21.3585L44.9676 21.897L45.1062 22.4354C45.3142 23.4226 43.7889 22.1662 43.9796 23.1534C45.1235 24.9033 48.3128 24.0059 49.0061 22.4354C49.9074 23.4675 52.0394 23.4674 52.9234 22.0764C56.3379 22.9066 58.2099 21.3809 61.0351 20.9995C61.1218 21.7175 60.6538 21.7175 60.4805 22.0764C61.7285 23.2655 61.7111 21.8072 62.9938 22.4354C63.7218 21.6726 63.2365 21.022 63.5484 20.2592C64.5711 20.147 65.1084 20.663 65.7844 20.9771C65.9923 19.6983 66.9283 20.8201 68.0203 20.2592C68.9216 21.5829 71.5042 21.3361 72.4922 19.9002C73.9655 20.9322 75.4561 20.0797 76.6868 20.9771C81.1933 19.0028 87.2772 20.8425 91.5064 18.0829L91.9224 18.2625L92.0611 17.724C92.7024 18.4419 92.3731 17.6342 92.8931 17.365C92.8931 17.006 92.6677 16.9388 92.6157 16.6471L93.0317 16.2208L92.8931 15.5477C94.401 14.5157 95.3716 14.942 96.8103 14.0894C97.6942 14.7625 95.8743 15.3234 96.8103 15.9067C99.9129 16.1311 101.664 15.3458 104.09 14.0894C103.605 14.1119 103.379 13.8202 103.258 13.3715C105.858 15.5029 108.597 13.9099 111.093 13.0125C111.093 12.9003 111.093 12.7658 111.093 12.6536L111.37 12.8331L111.647 12.6536C113.554 13.2369 115.339 11.8235 117.523 12.2946C117.662 11.8684 117.818 11.4645 118.078 11.2177V11.5767H118.355C119.482 13.0126 119.811 10.3428 120.591 10.1184C120.643 11.2626 120.782 12.2722 121.718 12.2946C121.718 11.1729 122.706 12.0702 123.122 10.8363C122.879 9.98373 122.879 9.87156 123.122 9.01902C123.347 9.10876 123.676 9.01902 123.676 9.37799V10.0959H124.231C124.196 10.7466 124.508 10.9485 125.063 10.8139C125.063 10.4549 124.838 10.3876 124.786 10.0959L125.202 9.91649L125.063 9.37799C126.224 9.17607 127.264 8.83952 128.426 8.66004C129.102 9.15362 128.599 9.378 128.98 9.73697C130.298 7.62804 134.561 7.987 135.965 9.73697C136.364 6.37165 140.507 9.24337 141.287 6.84278C141.46 7.58315 140.94 9.22094 141.564 9.37799C144.719 8.92928 147.682 9.19856 149.953 6.48387C150.196 7.02232 150.369 7.62803 151.08 7.56073C152.449 7.04471 153.836 4.62168 155.274 5.38449C154.91 6.25947 154.234 4.98066 154.148 5.74346C154.356 7.06715 155.985 6.30432 155.551 4.66654C157.961 4.59923 160.041 5.69858 163.386 5.02551C163.386 4.41976 163.386 3.81401 163.386 3.20825C164.703 3.29799 164.963 4.77873 165.899 5.38449C166.662 3.97106 170.319 6.32677 170.094 2.84927C171.411 3.814 173.56 5.1377 174.566 3.56722C177.374 5.16014 182.21 2.4679 185.745 3.9262C186.976 2.17624 188.38 3.88133 189.94 3.9262C190.599 3.81402 190.46 2.66979 191.344 2.84927C194.845 4.93577 197.757 2.44544 201.969 2.84927C202.056 2.19865 200.652 1.72752 201.414 1.39099C202.316 2.9839 203.997 4.73385 205.332 2.84927C205.418 4.37488 206.094 2.96145 206.736 2.84927C207.533 2.71466 208.937 3.36534 209.249 2.13139C209.249 1.77243 209.024 1.7051 208.972 1.41344C210.081 1.41344 209.769 3.27557 211.208 2.87173C212.144 2.5352 211.242 2.06407 211.762 1.41344C213.166 1.90702 213.201 1.92944 214.275 2.87173C214.934 2.64738 215.575 2.37817 215.679 1.41344C217.43 2.4006 219.319 2.69225 220.429 1.05447C221.625 2.19867 222.457 1.16661 223.497 2.4903C223.601 0.515982 225.161 2.10895 226.01 1.77242C226.305 1.66024 226.252 1.09934 226.842 1.05447C228.61 0.874984 230.672 0.919863 232.163 1.41344C233.272 0.20193 234.451 1.36857 235.526 1.41344C236.011 1.43588 236.427 0.695493 236.93 0.695493C237.311 0.695493 238.004 1.77242 238.334 1.77242C239.703 1.81729 240.535 1.54804 241.696 0.695493C242.459 1.99675 243.083 0.807662 243.932 0.336518C245.457 2.96146 248.56 -0.493607 249.531 1.79481C250.484 0.987131 254.436 0.336548 255.407 0.71795C255.355 0.695515 255.649 1.41346 255.684 1.4359C257.036 2.64741 258.717 0.96474 260.156 0.71795C261.542 0.47116 263.744 0.291669 265.182 0.358975C265.702 0.38141 265.789 0.987183 266.309 1.07693C267.886 1.39102 269.082 0.33654 270.226 0.358975C270.763 0.516023 270.937 1.14423 271.63 1.07693C272.237 0.134637 275.53 -0.179451 276.379 1.4359C277.09 -0.0672735 277.835 1.41346 278.893 1.4359C279.413 1.39103 279.083 0.246798 279.725 0.358975C280.106 1.43588 281.752 1.12179 282.515 0.71795C283.07 0.71795 282.879 1.70513 283.624 1.4359C284.214 0.359 285.999 1.61536 285.86 0.358975C289.639 1.63779 293.331 -0.381377 297.04 1.07693C297.491 0.471169 298.565 0.628192 298.999 0C299.068 0.740369 299.744 0.717958 300.125 1.07693C301.824 -0.291636 303.817 0.493588 305.447 0.358975C306.296 0.852554 305.377 1.39099 306.279 1.81726C306.227 1.03202 306.504 0.673033 307.111 0.740339C307.492 1.57045 306.383 2.10895 307.111 2.1987C307.44 2.266 307.908 2.1314 307.943 2.55767L307.527 2.73712L307.388 3.27555C303.037 3.90374 298.063 3.20825 293.123 3.27555C286.571 3.36529 279.69 4.64411 274.386 2.91658C269.481 4.53193 262.409 2.62495 257.608 4.35248C256.758 3.25314 255.476 3.92617 255.095 2.91658C254.679 3.34285 254.419 3.97107 253.691 3.9935C251.767 2.9166 251.056 3.79158 249.773 3.9935C249.288 4.06081 248.335 2.69226 248.369 4.35248C249.704 5.92296 252.321 7.06716 253.396 4.35248C254.678 6.34923 256.343 5.36209 257.59 5.07043C259.948 4.53198 262.6 6.16977 264.853 5.4294C265.286 5.45184 265.078 6.3492 265.685 6.14728C267.072 5.45179 268.458 4.86851 270.434 5.07043C270.867 5.1153 271.197 5.83318 271.561 5.78831C272.271 5.69857 272.375 5.04799 272.965 5.07043C273.485 5.09286 273.606 5.33966 274.091 5.4294C278.563 6.28195 283.191 3.72431 287.507 5.4294C287.074 5.47427 286.536 5.38448 286.675 6.14728C288.686 6.10241 289.431 5.49671 291.702 5.4294C291.684 4.95826 291.338 4.9358 291.424 4.35248C292.308 4.75632 292.048 4.37491 293.106 4.35248C293.851 5.99026 295.047 5.69859 296.173 5.81077C299.675 6.12486 303.488 5.27229 306.799 4.73384C310.022 4.19539 313.905 5.2723 317.146 5.09282C318.81 5.00308 320.249 5.20499 321.618 5.09282C325.033 4.82359 329.279 4.21784 332.243 5.09282C335.363 3.90374 337.807 5.13773 340.632 4.01596L341.048 3.83644L340.91 3.29801C341.759 2.28842 342.279 2.9839 343.7 2.58006L343.562 3.25316L343.978 3.67944C343.579 4.82365 345.659 4.59923 345.659 4.03835L345.798 3.49992L345.659 2.96149C345.988 2.6474 346.404 2.49034 347.063 2.60252C348.207 4.173 349.992 3.36534 350.98 3.32047C356.579 3.09611 362.593 4.44219 367.481 4.03835C367.845 4.03835 367.741 4.66656 368.036 4.7563C368.781 3.298 369.838 4.44219 370.826 4.39732C376.789 4.15053 385.213 3.76914 390.69 4.7563C392.475 5.07039 394.694 5.04797 396.566 5.11527C401.679 5.29476 406.688 5.54156 411.385 5.83322C411.663 7.65049 411.975 6.23707 412.789 6.1922C414.037 6.12489 415.875 6.79796 416.707 6.1922C416.637 7.02231 416.776 7.56075 417.261 7.65049C421.508 7.38126 423.189 9.1761 427.332 7.65049C427.314 8.27868 427.54 8.57036 427.886 8.72741C430.556 8.2114 434.282 9.64727 436.553 8.72741C436.882 9.96136 439.066 9.80425 439.343 9.08632C441.649 11.0158 443.85 9.7594 446.329 9.80427C446.381 10.2305 446.277 10.8363 446.606 10.8812C448.097 9.82673 449.986 10.2081 451.355 11.2402C454.908 9.57995 459.346 12.317 463.384 11.9581C463.818 11.9805 463.609 12.8779 464.216 12.676C466.504 12.2049 468.844 12.7433 471.479 13.035C471.496 15.4356 472.397 16.6695 473.16 18.1054C474.997 17.8811 477.545 19.4067 478.758 17.7464C482 19.0701 486.42 18.6439 490.788 20.6406C491.152 20.147 492.001 20.2816 492.746 20.2816C493.803 21.1118 495.883 21.4482 497.218 21.3585C497.235 21.8521 497.079 22.1438 496.941 22.4354C497.634 21.5156 498.033 22.8617 498.899 22.7944C499.333 22.0316 500.147 21.7399 500.858 21.3361C501.135 21.8073 501.326 22.4354 501.69 22.7944C502.331 21.4707 504.688 21.9867 504.758 23.5124C505.26 23.1758 505.572 22.6373 506.162 22.4354C506.456 22.772 506.248 23.7591 506.994 23.5124C506.924 22.9963 506.526 22.9066 506.439 22.4354C507.288 23.1309 507.687 23.9386 508.675 22.7944C508.658 23.4226 508.883 23.7143 509.23 23.8713C509.854 23.3329 510.426 22.772 511.466 22.7944C514.048 24.9258 519.647 24.9258 523.217 24.6117C523.165 25.3969 523.443 25.7559 524.049 25.6886C525.54 24.3649 527.88 27.5732 529.076 25.3296C529.267 25.8232 529.665 26.0026 530.185 26.0475C531.728 24.7238 533.6 25.6661 535.506 26.4065C537.205 25.1276 539.285 26.586 540.81 27.4834C540.741 26.8103 541.122 26.6757 541.088 26.0251C543.636 27.3937 546.461 26.5187 550.031 26.0251C549.997 26.9225 549.494 27.1469 550.309 27.4834C551.557 26.743 553.325 27.5732 554.781 26.0251C556.566 27.0571 560.726 26.227 560.084 27.4834L560.033 27.8872ZM196.336 9.01902C195.989 8.86197 195.764 8.54792 195.781 7.94216C195.053 7.82998 195.556 9.35555 194.655 9.01902C194.655 9.73695 195.417 9.46778 195.209 10.4774C196.943 10.7915 199.491 9.33314 201.362 9.40045C201.917 8.66008 200.063 7.96459 199.404 7.58318C199.057 6.41654 200.305 7.31397 199.959 6.1249C198.919 7.02231 198.347 6.52874 196.891 6.48387C197.861 8.81715 195.556 6.88765 196.336 9.01902ZM203.616 7.56073H203.061C203.026 6.28191 202.662 7.47097 201.934 6.84278C202.004 7.35879 202.541 7.24663 202.766 7.56073L202.628 8.23383L203.044 8.66004C204.95 11.0158 208.348 9.01902 210.878 9.01902L211.017 8.83956C211.017 8.83956 211.156 8.66007 211.71 9.73697C212.109 9.93888 212.386 8.32353 212.542 9.37799C213.426 8.41327 211.727 8.03185 211.138 8.66004L211.277 8.12161L210.861 8.30113C208.278 10.2306 205.73 5.18261 203.598 8.30113V7.56073H203.616ZM234.104 8.66004C235.196 9.3331 237.432 8.43575 239.426 8.30113C237.363 7.40372 235.335 7.58314 234.104 8.66004ZM224.034 9.01902C223.514 7.13444 221.105 8.59273 219.285 8.66004C218.505 8.68248 217.638 8.25626 216.771 8.30113C215.627 8.346 214.137 8.34596 213.409 9.37799C214.085 9.53504 214.015 8.70492 214.813 9.01902C216.39 11.5767 219.025 7.02229 220.134 10.0959C220.845 9.46775 221.503 9.17609 222.093 10.0959C222.526 9.89402 222.11 9.71453 221.815 9.73697C222.405 8.74981 223.774 9.13119 224.034 9.01902ZM232.146 8.66004C232.024 8.43569 230.811 8.03185 230.187 8.66004C230.291 8.88439 231.504 9.2658 232.146 8.66004ZM186.283 10.4549C185.486 10.3876 185.122 9.78184 184.324 9.73697C184.567 10.1632 184.688 10.7017 184.601 11.5542C185.277 10.4325 185.797 11.3299 187.115 11.1953C186.283 9.5799 189.039 9.96132 190.183 9.73697C189.593 8.03187 186.959 7.74023 186.283 10.4549ZM180.13 10.2754L179.852 10.4549C179.35 9.26584 178.726 10.8812 178.448 11.1729C178.57 12.0703 179.731 11.4421 179.28 10.4549C179.558 10.4549 179.61 10.7466 179.835 10.8139L180.112 10.9933L180.39 10.8139C180.303 11.2626 181.204 12.0703 181.222 11.1729L181.638 11.3523L182.054 11.1729C182.331 11.1729 182.608 11.1729 182.886 11.1729C182.886 10.6793 182.886 10.2081 182.886 9.71451C182.487 9.84912 182.418 10.1408 182.054 9.71451L181.638 9.89403L181.222 10.0735C181.222 9.71452 180.996 9.64726 180.944 9.3556C180.58 9.3556 180.684 9.98374 180.39 10.0735L180.13 10.2754ZM165.449 10.6344L165.31 11.1729C163.403 9.4229 158.55 12.2946 157.198 10.0959C156.331 10.1857 155.933 10.8812 155.24 11.1729C154.512 11.0158 154.39 10.0959 153.558 10.0959C154.113 10.5446 153.489 11.3523 153.281 10.4549C152.692 10.5447 153.68 11.4196 153.004 11.9132C148.636 10.926 145.186 11.6215 140.143 11.9132C140.143 12.2722 140.143 12.6312 140.143 12.9901C138.149 12.4292 136.849 13.3042 134.821 12.6312C134.821 12.8779 134.821 13.1023 134.821 13.3491C132.464 13.1696 129.76 12.9452 127.542 14.067C127.212 13.8875 126.9 13.6856 126.71 13.3491C126.346 13.7081 125.67 13.6856 125.583 14.426C118.875 13.6856 113.433 16.9163 107.401 16.2432C107.158 16.5349 106.17 18.4643 107.401 18.4195C105.477 18.9804 108.406 19.7432 107.678 20.5957C109.065 21.022 111.491 21.4483 111.595 19.5188L111.734 18.9804L111.318 19.1599C111.335 18.6663 111.179 18.3746 111.041 18.0829C111.838 18.0381 112.878 18.2849 113.277 17.724C113.242 17.2753 113.19 16.8714 112.722 17.006C112.999 16.4227 113.467 16.176 113.849 16.6471C113.849 16.849 113.623 17.051 113.571 16.6471C112.774 17.1183 114.299 17.6118 114.975 17.365C114.941 17.8137 114.889 18.2176 114.421 18.0829C114.438 18.5541 114.785 18.5766 114.698 19.1599C116.258 19.4067 115.547 18.1054 116.379 18.0829L116.518 18.6214L116.934 18.4419C117.263 18.7336 117.679 18.9131 118.338 18.8009C118.338 18.4419 118.112 18.3746 118.06 18.0829L118.476 17.6567L118.338 16.9836C120.747 16.6022 122.116 16.8266 123.659 16.2657C124.612 16.8041 123.503 17.7689 124.491 18.0829C124.716 17.9932 125.046 18.0829 125.046 17.724L125.462 17.9035L125.323 17.365C125.6 16.2432 126.086 17.7689 126.155 18.0829C126.484 17.9035 126.796 17.7015 126.987 17.365L127.403 17.5445L127.819 17.365C128.824 18.4868 129.171 16.4451 130.609 17.006C130.349 15.9516 130.349 15.8842 130.609 14.8298C132.013 14.3362 134.405 15.6599 134.249 14.1119C135.463 15.2112 137.508 13.192 138.444 14.8298C138.791 14.7625 138.617 14.426 138.444 14.1119C138.825 14.4709 139.484 14.4484 139.571 15.1888C140.177 13.8426 140.229 15.6375 141.252 14.8298C141.182 14.3138 140.784 14.2241 140.697 13.7529C141.2 14.3138 141.789 14.7401 142.379 15.2112C142.881 14.3138 142.742 14.8298 143.782 14.8522C143.8 13.8651 143.314 14.1343 143.782 13.4164C144.718 13.9324 146.278 14.2016 146.868 14.1343C146.729 12.0702 148.774 13.7754 150.23 13.7754C150.854 11.2402 153.628 13.6183 154.148 12.317C154.477 12.3843 154.46 12.8779 154.425 13.394C156.366 13.2369 159.035 14.0446 159.469 11.9357C160.37 11.6216 159.867 13.1247 160.301 13.394C161.289 12.6311 161.601 12.8331 162.537 13.394C162.693 12.2722 163.369 11.8235 163.663 10.8587C164.235 11.5767 164.547 12.6087 165.622 12.676L166.038 12.4965L166.454 12.317C166.454 12.676 166.679 12.7433 166.731 13.035C167.251 11.6664 168.014 10.5895 169.522 10.4998C168.898 8.83954 166.887 10.3876 165.882 10.4998L165.449 10.6344ZM80.8467 22.413C79.7894 23.1309 82.2853 22.1886 81.6787 23.4899C80.9507 24.9258 78.7494 22.256 78.888 24.5668C81.4186 24.7687 83.2733 23.6918 85.0413 24.9257C87.3465 22.0316 90.7091 24.6117 93.153 22.3906C93.4304 22.3906 93.3784 22.8392 93.4304 23.1085C94.7997 20.1694 97.5383 21.2912 100.416 21.6502C100.572 21.3585 100.71 21.0669 100.693 20.5733C101.664 21.1791 102.253 21.4707 102.929 21.6502C103.553 21.5604 102.651 20.9771 102.651 20.9322C102.686 20.5733 103.501 20.147 103.483 20.2143C103.501 19.5637 102.201 18.8682 103.206 17.6791C102.599 18.0157 102.149 16.9836 101.525 16.9612C101.507 16.9612 101.559 17.6567 101.525 17.6791C101.282 17.9483 100.208 17.2529 99.2889 18.0381C98.5089 18.7112 98.1796 19.6535 97.0529 20.2143C96.6196 20.4163 96.429 19.6983 95.9263 19.8554C95.3023 20.0348 94.8863 20.8425 94.245 20.9322C93.881 20.9995 93.4824 20.8425 93.1184 20.9322C92.4597 21.1117 91.9918 21.8521 91.4371 21.6502C91.2984 21.6053 90.8304 20.9322 90.8824 20.9322C89.9118 20.9995 89.0105 22.1437 88.0918 21.2912C87.8665 22.0989 86.7745 21.7624 86.6879 22.7496C85.6825 22.1214 85.1452 22.9739 84.7292 22.3906C84.5039 23.8489 82.8919 21.2912 80.8467 22.413ZM509.264 37.6018C507.462 37.871 508.71 40.137 507.86 41.2139C508.848 41.7747 510.72 41.4158 509.542 42.2908C510.01 43.3228 510.668 41.6177 510.651 40.8549C509.594 41.7299 510.443 39.9799 510.374 39.0376C509.975 38.6338 509.143 38.746 509.264 37.6018ZM515.002 42.4927L515.14 43.0311C513.598 45.2522 516.406 45.3195 517.376 44.8484C516.7 44.3548 517.203 44.1305 516.822 43.7715L516.96 43.0984L516.544 42.6722C516.735 41.3709 518.59 42.1786 519.63 41.9543C519.612 39.778 517.723 39.9351 517.116 41.2363C516.024 40.4062 515.054 40.4511 513.754 41.2363C513.632 42.2459 515.279 40.9447 515.158 41.9543L515.002 42.4927ZM554.711 50.8162L554.573 50.9957C553.723 49.7169 552.701 50.8387 551.21 50.6368C551.227 51.1977 551.921 50.9284 551.765 51.7136C553.359 51.7361 553.55 51.5566 554.555 51.3547L554.971 51.5342L554.833 50.9957C555.318 50.6592 556.341 51.0182 556.237 49.9188C555.699 50.0759 555.526 50.7041 554.833 50.6368L554.711 50.8162ZM6.17648 98.7832C6.57514 98.7383 6.97376 98.7159 7.00842 99.1421C7.82307 98.7383 6.64447 97.9755 6.17648 98.0428C6.22848 98.4691 6.10714 98.6934 5.89915 98.7607C5.95114 99.187 6.17648 98.9851 6.17648 98.7832ZM541.14 100.959C540.55 100.802 540.394 101.206 540.03 101.318C539.944 101.947 541.59 101.969 541.14 100.959ZM469.832 127.725C469.555 127.725 469.277 127.725 469 127.725C469 127.972 469 128.218 469 128.443C469.277 128.443 469.555 128.443 469.832 128.443C469.832 128.218 469.832 127.972 469.832 127.725ZM451.667 129.901L451.251 129.722L451.112 130.26C450.575 130.327 450.489 129.856 449.986 129.901C450.055 130.529 450.471 130.731 451.112 130.619H451.667C451.667 130.619 451.667 129.901 451.667 129.542C452.118 131.225 451.667 129.901 451.667 129.901ZM504.238 132.795C501.101 134.097 499.003 133.334 496.126 134.613C497.097 134.859 499.974 136.497 500.598 134.613C501.967 135.734 503.978 135.084 504.238 132.795ZM487.46 133.895C489.47 135.914 483.681 134.455 482.71 135.353C482.936 137.036 483.906 135.712 484.669 135.712C486.766 135.757 489.591 136.385 491.377 135.353C492.035 135.465 492.694 135.577 492.503 136.811C493.353 135.6 493.509 135.061 494.462 136.452C494.982 135.757 494.289 135.802 494.462 134.635C491.481 133.895 489.817 136.026 487.46 133.895ZM427.886 146.189C426.534 146.212 430.66 146.144 427.886 146.189V146.189ZM424.818 146.189C424.905 145.561 423.258 145.539 423.692 146.548C424.194 146.616 424.281 146.122 424.818 146.189Z" fill="#050505"/>
</svg>
