<svg width="580" height="152" viewBox="0 0 580 152" fill="none" xmlns="http://www.w3.org/2000/svg">
<path fill-rule="evenodd" clip-rule="evenodd" d="M439.022 8.68069C441.118 7.32842 443.394 8.57164 445.539 8.68069C447.749 8.81155 450.631 7.69916 454.004 8.09176C455.887 8.30986 457.901 8.78971 459.866 8.986C464.336 9.42222 470.247 8.68065 474.635 8.986C477.812 9.20411 480.923 10.0329 483.968 10.1638C489.011 10.3819 494.055 11.058 498.737 9.85842C499.507 10.3819 501.996 11.1016 502.651 9.85842C505.303 11.1671 508.431 11.2107 510.69 11.3416C512.426 11.4507 514.718 10.7745 516.11 11.0362C516.798 11.1671 517.207 11.9305 517.846 11.9305C518.124 11.9305 518.435 11.4288 518.714 11.3416C520.007 10.9708 521.186 11.3852 522.398 12.2358C526.262 12.6938 531.6 12.7375 536.512 14.0025C536.643 13.5009 537.543 14.0243 537.593 13.4136C539.541 14.5914 541.44 14.0897 544.535 14.8967C544.781 13.9806 545.157 15.0494 545.19 14.0025C545.698 14.6786 548.088 15.6601 548.006 15.1802C547.892 14.3296 548.858 15.6383 548.219 15.4856C549.202 15.6383 550.593 16.7724 551.477 16.0745C551.69 16.0527 551.952 16.9905 552.345 16.9687C552.427 16.9687 552.869 16.4235 552.787 16.3799C552.591 16.2708 553.099 17.4485 553.442 17.5576C554.114 17.7539 555.587 17.4049 555.178 18.4518C555.997 18.7354 556.455 18.1247 556.471 19.0408C557.094 18.0375 556.979 19.237 557.552 18.7354L557.667 19.1716L557.781 18.7354C558.092 19.6951 559.206 18.6482 558.649 19.6296C558.846 19.4988 559.042 19.3679 559.075 19.0408C559.386 19.1716 559.059 19.3025 559.075 19.6296C560.156 19.6733 560.696 18.1465 561.678 19.0408C562.35 19.6515 561.94 20.7202 562.333 21.3963C563.021 21.7235 562.906 21.3091 563.414 21.7017C563.299 21.2655 563.086 20.9601 562.988 20.5239H563.201V20.2403C564.118 19.9568 563.741 19.2589 564.724 19.6515C564.134 18.67 563.054 18.3646 562.988 16.6852C564.724 18.4082 567.229 17.4922 567.982 20.2403C568.506 19.5206 568.555 20.9601 569.505 20.5239C570.275 22.1379 571.47 24.079 572.763 24.079C572.076 25.8675 574.073 24.9296 573.418 26.4346C575.121 26.4346 575.711 28.3321 576.89 28.7902C575.989 29.0301 576.71 30.3387 576.022 29.9679C575.449 30.884 577.397 30.7968 576.677 31.4511C576.824 31.4511 576.971 31.4511 577.102 31.4511L576.988 31.8873L577.315 31.7346C577.79 32.8251 579.739 33.5013 579.706 34.9844L579.378 35.137L579.264 35.5733C578.789 35.3115 577.987 34.0029 577.528 34.679C576.824 33.2613 576.251 33.1523 575.351 32.9124C576.431 32.6943 574.532 32.0836 574.041 31.4292C573.582 32.0399 573.255 31.9309 572.518 32.607C573.91 33.0433 573.418 34.5045 574.466 34.679C574.188 35.6823 574.925 34.9844 575.334 35.5733C575.383 35.6605 575.269 36.1185 575.334 36.1621C575.547 36.3148 575.809 35.9004 575.776 35.8568C576.104 36.1185 576.055 36.642 576.431 37.0346C577.25 37.8852 578.609 38.1033 579.035 38.8013C579.1 39.3684 578.609 39.8264 578.167 40.5679L577.839 40.4153L577.954 40.8515C577.577 40.7424 577.545 41.0914 577.512 41.4404C577.021 40.4807 576.791 40.7206 575.776 40.8515C575.891 40.6116 576.005 40.3717 575.989 39.9572C575.416 40.3717 574.794 39.7827 574.041 39.3683C573.713 39.172 572.862 39.1285 573.386 38.4741C572.698 38.147 572.894 38.4523 572.092 38.4741C572.076 37.2745 571.715 38.0379 570.782 37.2963C569.98 36.9692 570.438 38.4087 569.702 38.1906C570.242 37.0128 568.064 38.4523 567.966 37.2963L568.081 36.8601L567.753 37.0128C567.753 36.9037 567.753 36.8165 567.753 36.7074C567.393 36.6202 566.787 36.3148 566.459 36.7074V37.2091L566.247 37.6017C564.675 37.3617 564.184 35.6823 562.775 35.2461L562.874 34.8099L562.546 34.9626C562.202 35.0498 562.17 34.6791 561.891 34.6573L561.646 34.221L561.253 34.3737C560.712 34.0029 560.287 32.8688 559.517 32.607C559.632 32.6507 558.387 33.3268 559.075 32.3017C558.387 32.0399 558.256 32.5634 557.994 32.8905C557.634 31.7128 556.553 31.2984 555.391 30.535C555.342 30.8622 554.965 30.7313 554.949 31.1239C555.407 31.2547 555.522 30.9276 555.817 30.8186C556.39 32.0181 557.585 32.3453 558.207 33.4795L558.092 33.9156L558.42 33.763C559.059 34.0902 559.239 35.0062 560.156 34.9407C559.812 34.221 560.892 34.0683 560.811 34.6354C560.565 34.5918 560.418 34.7008 560.385 34.9407C560.974 35.1588 560.827 34.3519 561.253 34.3519L561.498 34.7881L561.891 34.6354C562.137 35.0716 562.137 35.377 561.891 35.8132L561.777 36.2494L562.104 36.0967C562.186 36.5111 562.481 36.1185 562.53 35.7914C562.906 35.8786 562.432 36.0967 562.53 36.3803C562.726 36.9473 563.349 36.6638 563.61 36.9692C564.151 37.6235 563.414 37.4272 564.053 37.8634C564.462 38.1251 565.313 38.8667 566.001 38.4523C566.001 38.8449 566.001 39.2375 566.001 39.6301C566.754 38.9103 566.689 40.5461 567.082 39.3465C566.902 39.4992 567.819 41.5931 567.95 40.2408C567.884 40.9824 568.736 42.1601 567.95 42.9017C568.031 43.3161 568.326 42.9235 568.392 42.6182C568.981 42.0729 568.113 43.5123 567.95 43.7959C568.506 43.0107 568.179 44.472 569.03 44.1013C569.096 44.5811 568.834 44.6029 568.817 44.9955C569.063 45.0391 569.21 44.9301 569.243 44.6901C570.062 45.8243 568.801 45.8897 569.898 46.4568C569.358 47.2638 569.8 48.0926 569.685 48.2235C569.783 48.6597 569.964 48.1144 570.34 48.2235C570.127 49.6193 571.896 50.3391 572.518 50.8844C572.485 51.9313 572.109 50.8626 571.863 51.7786C572.371 52.7601 573.648 52.6947 573.811 54.1342C574.516 54.505 574.859 53.7634 574.892 54.7231L574.565 55.0721L574.679 55.6173C573.861 55.6391 573.975 56.0535 573.599 55.3119C573.484 55.7263 573.369 56.2717 573.156 55.0285C572.878 55.1375 572.812 55.5519 572.501 55.6173C572.501 55.7264 572.501 55.8137 572.501 55.9227H572.289V56.228C571.175 55.3338 571.961 56.9478 570.979 56.228C571.192 58.1256 572.436 57.1877 572.714 58.5835L572.387 58.9325L572.501 59.4778C572.305 59.9358 572.174 59.3906 571.634 59.7832C571.634 60.0667 571.896 60.0231 572.076 60.0667C571.879 60.5902 571.273 60.8955 571.208 60.0667C570.52 60.5248 571.11 61.3536 570.782 61.8334C571.241 61.6589 571.241 61.3754 570.995 60.9391C571.273 60.3721 571.47 61.5935 571.208 62.1169L570.88 62.4659L570.995 63.0112C570.717 63.6655 569.472 62.8803 568.179 62.7058C567.769 62.7494 568.048 63.7091 567.737 63.8836C567.622 63.4474 567.606 63.4256 567.082 62.9894C566.902 62.9239 566.869 63.0984 566.869 63.2947L566.754 63.142L566.64 63.2947C566.509 62.5749 565.543 63.142 565.772 63.8836L565.444 64.0362L565.772 64.1889C565.706 64.5379 564.544 65.0395 565.559 65.0832L565.674 65.5194L565.788 65.0832C566.083 65.1704 565.968 65.8248 566.001 66.261C566.247 67.0025 566.902 65.5412 566.869 66.8498L566.541 67.0025L566.656 67.4388C566.165 68.0276 565.444 66.8934 565.575 68.6165C565.281 68.5293 565.395 67.875 565.362 67.4388C565.166 67.6569 565.035 67.984 564.92 68.3329C564.937 67.3515 564.315 67.5478 563.61 68.3329C564.167 68.791 564.969 68.3766 565.346 69.2272L565.231 69.6634L565.559 69.5107C566.59 69.1836 566.885 70.2741 567.507 71.2774H567.295V71.5828C566.967 71.9318 566.754 71.9318 566.427 71.5828C566.541 71.8227 566.656 72.0626 566.64 72.477C566.181 72.8478 564.937 72.1062 563.594 72.7823C563.561 72.0844 561.826 71.5828 560.991 72.7823L560.876 72.3462L560.761 72.7823C559.779 73.2186 560.401 74.2437 560.549 74.549C560.303 74.7235 559.042 74.44 558.371 74.8544C558.518 75.7704 558.518 75.4214 558.371 76.3375L558.043 76.1848L558.158 76.621C558.125 76.9264 556.832 76.4684 556.848 75.7268C556.16 75.5523 556.177 76.2721 555.767 75.7268C557.372 76.7519 558.469 78.2132 559.452 78.3877C559.73 79.042 559.648 79.1293 559.009 79.282C559.075 80.4597 559.763 78.9548 559.664 80.1762C560.156 78.9984 560.123 80.2853 560.974 80.1762C560.254 78.9984 561.384 80.1544 561.4 81.0705C561.891 80.3507 562.612 81.4194 563.136 82.2482L562.808 82.4009L562.923 82.8371C562.71 82.8371 562.481 82.8371 562.268 82.8371C562.923 83.2297 562.317 83.884 562.923 84.6038C562.595 85.5853 562.399 83.9931 561.842 84.3202C562.595 84.7564 561.891 85.4108 561.629 86.0869C561.777 86.0869 561.924 86.0869 562.071 86.0869L561.957 86.5231L562.284 86.6758C562.088 87.1992 561.482 87.1556 561.416 87.8536L561.089 88.0062L561.416 88.1589C561.04 88.7696 561.58 88.7478 561.204 89.3367L560.876 89.1841L560.991 89.6202C561.367 90.8852 560.565 91.3433 560.336 92.2811C560.156 91.6922 559.697 91.8667 558.6 92.2811L558.485 92.4338L558.6 92.5865C558.469 92.6738 557.765 93.3281 557.732 92.5865C557.552 92.5429 557.536 92.6955 557.519 92.8918L557.29 92.5865C556.897 93.6334 556.75 92.6083 556.21 92.2811L556.095 91.8449L555.98 92.2811C555.473 91.8885 555.505 92.4338 555.112 91.6923C555.047 91.954 554.67 93.1972 554.458 92.2811C554.703 92.2157 554.572 91.9758 554.458 91.9758C554.49 92.2375 554.376 92.2593 554.245 92.2811C554.196 91.954 554.032 92.1284 554.032 92.2811C554.72 93.1536 555.096 93.1318 555.98 92.5865L555.866 93.0227L556.193 93.1754C556.406 93.5462 556.57 92.5428 557.061 93.4807L556.946 93.9169L557.274 93.7642C557.929 93.5898 558.191 92.8482 558.584 94.3532L558.469 94.6585L558.584 94.9639C558.273 95.0947 558.6 95.2256 558.584 95.5527L558.813 96.4252C558.289 96.3161 558.928 97.7774 558.158 97.3194C558.191 97.0795 558.371 97.0359 558.371 96.7305C557.732 97.4939 557.307 96.2507 557.061 96.7305L556.766 97.1013L556.406 97.3412C556.144 97.3848 556.013 97.2758 555.964 97.0577C555.473 97.2322 556.226 97.5157 555.751 97.9519C555.243 97.5811 555.342 97.9955 554.67 97.6466C555.293 98.9334 555.555 98.3227 555.751 100.024C556.079 98.9552 556.504 100.307 557.045 100.613L556.93 101.049L557.257 101.202C557.356 102.336 556.602 101.049 556.39 102.096L556.16 101.791C555.98 101.747 555.948 101.9 555.948 102.096C555.276 102.489 554.752 101.224 554.425 102.096C554.932 102.096 555.063 102.598 555.735 102.401L555.62 102.838L555.948 102.685C556.57 103.208 556.439 102.423 556.602 103.579C557.225 103.056 558.633 104.255 558.993 104.168C559.091 105.389 558.322 103.775 558.567 105.346V105.651H558.78C558.469 106.502 558.06 105.782 557.487 106.545C557.749 106.153 557.568 106.087 557.487 105.651C557.159 105.913 557.552 106.087 557.274 106.829C556.963 106.763 557.192 105.956 556.832 105.935L556.717 105.498L556.602 105.935C556.422 105.869 556.39 105.629 556.177 105.629C555.997 105.586 555.964 105.738 555.964 105.935L555.571 105.782L555.325 106.218C554.916 105.259 554.261 106.349 553.59 105.629C553.59 105.826 553.59 106.022 553.59 106.218C553.557 106.48 553.672 106.502 553.803 106.524C553.934 105.804 554.228 107.287 554.67 107.112C555.325 106.218 555.653 106.371 555.653 106.371L555.98 106.524C556.177 106.742 556.471 106.851 556.848 106.807C555.997 107.461 556.995 107.331 557.29 107.985C557.339 106.807 558.6 108.312 559.239 108.268L558.911 108.574L559.239 108.879C559.108 109.686 558.142 109.294 557.716 109.468C556.897 109.817 557.912 109.73 557.061 109.468C556.537 109.294 556.832 109.97 556.635 110.057C556.275 110.188 556.062 109.141 555.555 109.752C555.194 110.188 554.343 110.057 553.164 110.646C553.131 111.169 553.426 111.278 553.377 111.824C553.917 111.453 554.065 111.976 554.245 111.518C554.818 111.431 553.672 112.674 554.67 112.412C554.097 113.35 553.164 113.808 552.28 113.59C552.28 113.677 552.28 113.786 552.28 113.896H552.067V114.201C551.887 114.266 551.854 114.092 551.854 113.896C551.346 113.983 551.363 114.812 550.986 115.073C552.001 115.684 551.985 114.79 552.509 116.251L552.182 116.404L552.509 116.556C552.951 117.582 552.411 116.535 552.296 117.145L551.969 116.993L552.083 117.429C551.494 117.407 551.641 117.931 551.215 117.429C551.248 118.912 550.479 116.491 550.348 118.018C550.888 117.974 551.019 118.476 551.428 118.607L551.314 119.043L551.641 118.89C552.034 118.323 552.378 119.152 552.722 119.479L552.394 119.632L552.509 120.068C552.411 120.831 552.296 120.242 551.428 120.657C551.379 121.159 551.805 121.42 551.428 121.551C551.297 122.249 551.15 120.788 551.428 120.373C550.839 120.177 551.003 120.984 550.773 121.268C550.675 120.875 550.675 120.482 549.693 120.679L549.365 120.526L549.48 120.962C549.103 121.224 549.12 122.053 548.612 122.14C548.186 121.922 547.204 121.966 547.744 121.246C547.253 122.467 546.533 122.86 546.009 123.601C546.009 123.689 546.009 123.798 546.009 123.885L545.681 123.732L545.796 124.168C544.748 125.63 543.651 124.103 542.979 125.935C542.275 126.197 542.685 124.954 542.112 125.041C542.161 125.281 542.03 125.324 541.899 125.324L541.784 124.888L541.67 125.324C541.211 125.193 541.096 125.521 540.802 125.63L540.687 125.193L540.573 125.63C539.836 125.848 539.115 125.455 538.624 126.524C539.492 126.502 540.212 126.502 540.36 126.24C540.032 126.088 540.343 125.935 540.573 125.935L540.687 126.371L540.802 125.935C541.506 125.695 541.26 125.673 541.67 126.24V127.418C541.506 127.767 541.964 128.4 542.324 128.596C542.717 128.814 544.175 128.727 543.847 128.291C544.109 129.687 543.422 129.098 542.979 130.363C542.537 130.145 542.112 129.447 541.67 130.079C541.784 130.69 542.325 129.643 541.883 130.668C542.734 131.301 542.963 131.737 544.273 132.151L544.158 132.456L544.273 132.74C544.093 132.893 543.913 133.045 543.618 133.045L543.291 132.893L543.405 133.329C543.34 133.329 543.258 133.329 543.192 133.329L543.307 132.893L542.979 133.045C542.799 133.089 542.767 133.329 542.537 133.329L542.439 132.893L542.324 133.329C542.079 133.285 541.932 133.394 541.883 133.634C542.161 133.743 542.226 134.158 542.537 134.223L542.865 134.376L543.192 134.223C543.454 134.594 544.011 134.354 544.273 133.94L544.371 134.092L544.486 134.245C545.043 132.893 546.745 135.575 547.089 133.961C546.926 134.55 547.957 134.376 547.531 135.139L547.417 135.423L547.531 135.706C545.861 136.862 546.287 135.51 545.141 137.189C545.026 135.619 545.452 137.233 544.715 137.189C545.075 137.211 543.553 135.27 542.537 136.906C541.882 136.84 542.718 136.361 541.67 136.317C541.801 137.102 540.392 137.931 539.721 136.906C539.819 137.168 539.917 137.429 540.163 137.495C539.426 137.473 538.608 136.273 537.347 137.495C537.494 136.797 536.626 136.949 536.266 137.8C536.463 138.607 536.757 136.906 537.134 137.8C537.019 138.04 536.905 138.28 536.921 138.694L536.807 139.131L537.134 138.978C537.249 139.218 537.363 139.458 537.347 139.872L537.019 139.719L537.134 140.156C537.069 140.156 536.987 140.156 536.921 140.156C536.397 141.508 534.907 142.01 534.318 142.817C534.121 143.384 533.859 142.489 533.663 142.511C533.024 142.577 532.533 143.493 532.14 143.405C531.338 143.209 531.567 142.991 531.485 143.1C531.027 143.754 530.257 143.166 529.962 142.817C529.406 143.035 529.045 143.536 528.882 144.3C529.144 144.845 529.078 143.624 529.749 144.3C529.602 144.692 529.291 144.845 528.882 144.889C530.093 145.019 530.65 145.608 531.698 145.172C531.714 144.365 531.338 144.583 531.698 143.994C531.944 144.06 531.813 144.3 531.698 144.3C532.484 144.932 533.221 143.34 533.646 143.405C533.745 143.427 534.498 143.711 534.514 143.689C535.169 143.405 535.022 143.231 535.595 143.689L535.48 144.125L535.808 144.278C536.037 145.434 534.891 144.736 535.153 145.761C534.252 145.499 533.45 146.699 532.975 146.939C532.5 147.179 531.665 146.633 531.24 147.833C530.961 146.764 530.716 147.484 530.372 146.655C529.946 147.222 529.864 148.226 529.93 148.727C529.733 149.054 529.438 148.924 529.062 148.727C529.176 148.967 529.291 149.207 529.275 149.622C529.242 148.967 528.587 149.796 528.849 149.622C527.932 150.276 526.36 150.581 525.378 150.21C525.181 150.428 525.05 150.756 524.952 151.105C525.116 150.167 523.445 151.105 523.429 151.105C522.741 151.126 521.595 151.105 520.613 150.21C520.351 150.254 520.433 150.756 520.4 151.105C519.352 149.97 519.892 151.672 518.877 150.21C518.632 150.276 518.763 150.516 518.877 150.516C517.567 150.821 516.126 150.319 514.964 151.693C513.818 149.774 512.311 152.457 511.918 151.105C510.936 152.261 508.922 150.668 507.137 151.999C504.534 150.429 501.685 151.323 498.459 151.693C497.247 151.846 495.725 151.65 494.546 151.693C494.218 151.715 494.153 152.021 493.891 151.999C493.35 151.933 493.121 151.323 492.597 151.105C490.927 150.428 487.423 151.214 485.426 151.105C484.787 151.061 483.952 150.581 483.035 150.516C482.134 150.45 481.152 150.668 480.219 150.516C478.598 150.254 475.781 149.011 475.225 149.927C474.521 149.578 472.212 148.684 471.098 149.338C470.656 148.313 468.037 148.64 466.53 148.749C466.35 148.117 465.581 148.269 465.237 147.855C462.519 149.054 459.62 146.895 457.426 148.16C457.213 147.222 456.837 147.92 456.346 147.855C455.511 147.746 454.774 146.764 454.168 146.677C453.775 146.612 452.465 146.677 451.99 146.677C451.777 146.677 451.826 147.048 451.777 147.266C451.286 146.939 450.68 146.764 450.255 146.372C448.879 146.612 448.634 147.31 447.651 146.372C445.26 147.375 441.02 146.219 438.105 146.066C436.975 146.023 436.288 146.459 435.289 145.477C431.474 145.39 427.757 145.412 424.433 145.172C424.056 145.15 423.745 144.67 423.352 144.583C422.108 144.3 420.094 144.998 419.668 142.817L419.783 142.38L419.455 142.228C419.423 141.05 419.783 142.315 420.11 141.639C419.996 141.399 419.881 141.159 419.898 140.745C418.571 140.592 418.522 142.25 417.081 141.05C417.147 141.879 416.459 143.318 416.001 144.3C412.677 143.645 408.894 143.776 406.225 143.405C405.62 142.206 404.899 142.315 404.277 141.639L404.162 141.333L404.048 141.05C404.899 139.741 407.126 140.33 407.961 138.978C407.191 138.52 405.276 139.022 404.277 139.872C403.982 139.196 402.558 138.891 402.541 140.177C402.852 140.657 403.294 140.941 403.851 141.072L403.737 141.508L404.064 141.661C404.261 142.817 403.54 142.708 403.409 143.427C398.89 142.598 394.387 142.206 389.721 142.838C389.278 142.555 388.869 142.228 388.411 141.944C385.365 142.838 381.583 141.988 378.423 140.766C379.143 138.389 380.879 140.57 382.107 139C381.665 138.324 380.813 138.215 379.929 138.105C380.682 137.189 378.832 137.124 379.487 136.339C377.997 135.575 377.719 137.233 376.884 136.928C377.424 138.585 377.096 138.52 377.326 140.483C376.474 142.555 374.575 141.05 372.757 141.072C372.135 141.072 371.562 141.552 370.809 141.661C366.715 142.315 362.082 141.312 359.298 141.661C358.872 141.072 358.266 140.701 358.004 139.894C356.924 140.199 355.63 140.221 355.172 141.377C350.423 142.882 346.314 140.875 341.713 142.555C337.881 141.355 331.004 143.973 327.598 141.661C324.455 143.296 320.017 141.573 315.875 141.966C314.188 142.119 312.42 143.035 310.881 141.966C310.913 141.442 310.619 141.333 310.668 140.788C309.211 141.137 308.13 140.854 307.197 142.271C303.889 142.424 300.778 142.359 297.863 142.271C295.899 142.206 293.721 142.729 292.215 141.094C291.953 141.442 291.445 141.421 290.905 141.377C290.413 143.144 286.893 142.424 284.83 142.555C283.373 142.664 281.932 141.508 280.917 141.661C280.622 141.704 280.311 142.249 280.049 142.249C278.755 142.315 277.413 141.704 276.135 141.661C272.091 141.53 267.867 143.973 264.625 141.072C264.33 141.355 264.346 142.075 263.97 142.249C259.27 141.617 251.951 144.016 247.678 141.944C243.65 143.82 237.542 142.86 231.828 142.249C231.828 141.552 231.828 140.875 231.828 140.177C231.173 139.872 231.451 140.832 231.402 141.355C230.764 141.682 230.109 141.966 229.879 142.838C227.882 142.38 223.952 143.013 220.546 142.838C219.548 142.795 218.647 142.271 217.73 142.249C216.764 142.228 216.011 142.686 215.127 142.533C211.262 141.901 206.055 141.442 201.667 141.639C198.72 141.77 196.28 141.835 192.334 141.333C188.388 140.854 184.295 140.963 180.611 141.05C176.665 141.137 172.571 140.701 168.445 140.461C165.367 140.265 161.944 140.33 158.899 139.872C156.099 139.458 153.332 140.199 150.434 140.177C148.223 140.156 146.176 139.698 143.917 139.872C140.724 140.156 136.238 140.483 132.619 139.567C131.456 140.374 131.293 139.632 130.228 140.461C128.951 139.436 127.445 140.57 126.102 140.461C125.938 140.461 125.693 139.916 125.447 139.872C124.072 139.589 122.533 140.047 120.879 139.567C121.043 138.76 120.453 138.978 120.437 138.389C117.719 138.651 115.197 139.763 112.839 139.872C111.202 139.959 109.581 141.29 107.403 140.461C106.503 140.112 105.668 138.716 104.8 138.389C103.539 137.909 102.327 138.28 101.116 138.978C99.4128 139.959 96.793 140.614 94.1732 139.283C91.2587 141.551 87.7547 140.374 84.6273 141.05C82.2367 141.573 80.3537 142.773 77.2427 141.944C76.9807 141.879 76.686 141.377 76.3749 141.355C73.6077 141.159 70.7423 143.296 67.6968 143.122C66.436 143.056 65.2079 142.249 64.0126 142.228C62.6045 142.206 61.0981 142.969 59.6736 143.122C58.3964 143.253 57.152 142.795 55.9895 142.838C55.1708 142.86 54.434 143.34 53.5989 143.427C52.0925 143.58 50.8154 143.013 49.2599 142.838C46.8202 142.555 44.053 143.362 41.6624 142.838C38.6824 142.184 34.7036 142.271 31.2487 141.661C29.4312 141.333 27.6628 140.134 25.8126 140.483C23.7495 140.854 21.67 140.068 19.5086 139.894C17.5602 139.741 15.5462 140.614 13.6468 140.483C11.7966 140.374 10.2247 138.716 8.43992 138.411C8.3253 138.171 8.21073 137.931 8.2271 137.517C3.87167 137.255 0.826127 132.369 1.92317 126.568C-0.958619 122.314 2.80735 115.073 1.7103 110.886C2.0869 108.072 4.29734 106.371 4.75581 103.775C4.91955 102.881 4.46112 101.747 4.54299 100.809C4.69036 98.8462 5.75465 97.0577 5.4108 94.8984C6.75346 93.5898 7.91596 91.9976 9.11125 90.4709C9.0785 86.5013 8.99668 84.7783 8.89843 81.5939C10.0446 80.5906 10.2575 78.3223 11.5019 77.4499C11.5182 73.1313 12.9919 70.1869 12.1568 66.2173C13.9907 65.0177 14.8748 62.1169 14.3345 58.5181C16.2175 57.3403 16.0374 54.3305 17.3801 52.0186C17.2654 49.7284 17.9368 47.3293 17.1672 45.2136C17.8385 43.7741 18.2806 42.3346 18.2479 40.4807C18.2315 39.3465 17.5929 37.9943 18.035 36.3367C18.3625 35.1153 19.5905 34.1119 19.9835 32.498C20.2618 31.3856 19.9344 29.4663 20.1964 28.3539C20.6876 26.3473 22.6197 24.9297 23.0127 23.3375C23.6185 23.1848 24.1424 22.9012 24.7483 22.7486C25.698 20.9819 28.0066 21.0692 28.6616 18.9099C29.1201 19.0408 29.2347 18.7136 29.5294 18.6045C30.3481 17.5358 31.1013 16.9251 32.3457 16.249C34.0322 15.3111 36.8813 12.7811 39.2882 11.5161C43.2834 9.44404 48.7523 8.37531 52.7475 7.08848C52.9112 7.04486 52.9767 7.48111 53.1896 7.39386C56.7591 5.86711 63.6197 5.88886 68.1716 5.62714C68.9412 5.58351 69.6289 5.03827 70.3494 5.03827C71.1026 5.03827 71.7902 5.67076 72.5271 5.62714C74.1317 5.53989 75.7527 4.58027 77.7339 4.4494C79.3713 5.80167 80.7467 4.40578 82.5151 4.4494C84.6109 4.51484 86.9032 3.7296 88.3769 5.62714C89.8669 5.5617 91.7171 4.64565 92.7159 5.62714C93.4691 4.60203 94.3042 5.58351 95.3194 5.62714C97.0387 5.71438 99.4292 4.14401 101.181 5.62714C101.885 5.99792 101.345 4.66749 102.049 5.03827C102.196 5.86708 101.754 6.36873 102.262 7.69918C103.277 8.00453 103.768 7.59016 104.44 7.39386C105.684 7.04489 107.387 7.17571 108.779 6.80493C110.482 6.34691 111.579 4.71114 113.773 6.49962C114.935 5.77986 117.67 6.58684 118.98 5.32182C120.339 6.45598 122.287 5.45271 123.548 4.73295C126.037 5.649 129.066 4.47118 133.094 4.14402C134.027 4.05678 135.075 4.27489 136.139 4.14402C137.384 3.99135 138.792 3.35886 139.611 3.55516C139.823 3.59878 140.315 4.4494 140.478 4.4494C140.904 4.42759 140.708 3.68602 140.92 3.55516C140.97 3.53335 141.379 3.86052 141.575 3.83871C142.132 3.79509 143.344 3.00989 144.179 2.94446C145.833 2.8136 148.354 3.48969 149.828 2.35553C151.023 3.46787 152.382 2.33375 154.167 2.05021C155.182 2.85721 156.934 3.44612 158.506 3.22801C158.964 3.16258 159.341 2.70451 159.816 2.63908C160.667 2.50821 161.502 2.81356 162.419 2.63908C163.533 2.44278 164.793 1.63578 166.333 1.74483C167.233 1.81026 168.068 2.44282 168.936 2.33376C170.099 2.2029 170.917 0.937858 171.982 1.15597C172.145 1.19959 172.62 2.0284 172.849 2.05021C173.111 2.07202 173.226 1.52678 173.504 1.46135C174.061 1.30867 175.076 1.41773 175.895 1.46135C179.202 1.65764 181.855 1.52675 185.015 1.15597C185.408 1.50494 185.752 1.91936 186.096 2.33376C186.538 1.94117 187.406 2.13745 187.389 1.15597C189.141 1.33045 190.926 0.588919 192.171 1.46135C192.744 0.959701 194.299 0.370811 194.774 1.46135C198.081 0.109083 202.044 0.676129 205.204 1.15597C205.63 1.2214 205.663 1.6794 205.859 1.74483C206.579 1.96294 207.562 1.43952 208.462 1.43952C209.216 1.46133 210.034 1.85388 210.853 1.74483C212.703 1.46129 214.472 0.0872641 216.273 0.5671C216.486 1.06875 216.96 1.22143 217.353 1.46135C220.726 0.63254 223.461 1.87575 225.606 1.46135C226.572 1.26505 227.227 0.436225 228.209 0.28355C229.748 0.0218214 231.288 0.937871 232.99 0.28355C233.547 0.305361 233.744 0.828826 234.071 1.1778C237.772 1.06874 239.573 1.70124 242.111 0C242.324 0.392593 242.684 0.588897 242.978 0.894247C246.008 -0.370774 249.413 2.11562 251.886 0.588865C252.426 0.545244 252.557 1.04693 252.967 1.1778C257.027 0.239937 261.972 2.18106 266.213 1.48311C267.081 1.33044 267.916 1.72306 269.029 1.78849C269.848 1.83212 270.65 1.17775 271.42 1.19956C272.566 1.24318 273.499 1.96298 274.678 1.78849C276.561 1.52677 278.69 2.37739 280.753 2.68274C281.277 2.74817 281.719 2.33376 282.276 2.39919C282.652 2.421 282.963 2.92263 283.356 2.98806C285.943 3.46789 288.727 2.26833 291.396 2.39919C296.685 2.66092 301.891 2.83538 308.326 2.98806C308.932 2.92263 308.916 2.02837 309.407 1.81026C311.372 2.7045 313.5 2.09384 315.482 2.39919C315.809 2.44281 316.382 2.98806 316.792 2.98806C317.741 2.98806 318.691 2.2029 319.608 2.39919C320.312 2.55187 320.476 2.81361 321.344 2.68274C322.064 2.5955 322.932 2.74817 323.734 2.68274C325.486 2.55188 327.467 1.76665 328.728 2.09381C329.023 2.15924 329.301 2.66093 329.596 2.68274C331.332 2.7918 333.46 1.61398 335.671 2.98806C338.405 2.42098 342.253 2.20291 345.446 2.68274C347.918 3.05352 352.143 2.66088 354.779 3.86047C356.58 3.14072 358.07 3.03168 360.199 2.37736C359.855 3.42427 360.935 2.55185 360.854 3.27161C361.345 3.35885 361.099 2.42098 361.508 2.37736C365.193 3.03168 369.417 1.78845 372.577 3.86047C374.558 3.20615 376.343 3.33701 378.226 2.96623C378.701 2.9226 378.914 3.20615 378.881 3.86047C379.471 4.05677 379.307 3.24976 379.536 2.96623C380.568 2.90079 381.354 4.05678 382.582 4.14402C384.334 4.27489 386.364 2.20287 387.788 4.14402C390.539 3.40246 395.124 4.79836 397.777 5.32182C398.661 4.38396 400.593 3.92591 401.248 5.91069C401.739 5.99793 401.493 5.06006 401.903 5.01644C404.588 4.20944 406.864 5.77983 409.074 6.19423C411.039 6.56502 413.152 5.6926 414.936 7.08848C415.411 6.93581 416.344 6.36876 416.459 7.39386L416.132 7.74278L416.246 8.28804C415.296 8.46253 412.48 8.26624 413.43 9.18229C411.236 8.09176 408.289 11.3634 406.258 8.59343C405.03 8.76791 404.719 9.40044 404.08 9.77122C404.048 9.24777 404.342 9.1387 404.293 8.59343C402.836 9.22594 402.181 8.22264 401.035 7.69918C400.544 8.83334 399.332 8.00456 398.431 8.00456C398.546 7.76464 398.661 7.52472 398.644 7.11031C396.532 6.01978 396.205 8.1572 393.65 7.69918C392.93 6.9358 392.963 6.89218 391.915 6.80493C391.571 7.21934 391.374 7.85186 390.621 7.69918C389.41 7.35021 389.311 6.23788 388.231 6.21607C387.608 6.19426 386.953 7.00126 386.282 7.11031C384.596 7.35023 382.942 5.88888 380.862 6.80493C379.864 4.84197 378.374 6.65226 376.736 6.80493C375.59 6.91399 374.444 5.97612 373.478 5.91069C372.086 5.84525 370.563 6.65228 368.926 6.21607C369.204 5.03829 368.287 5.49633 368.271 4.73295C366.241 4.90744 365.455 4.90738 363.277 5.62714C363.686 5.10368 363.228 4.71113 362.835 4.4494C362.065 5.16916 361.083 5.62714 360.444 6.52138C359.74 5.93249 359.003 6.6741 358.709 7.11031C359.364 7.74283 359.576 8.11357 360.231 7.41563C360.133 8.59341 361.165 7.80827 361.525 8.00456C362.065 8.2881 362.049 8.78969 362.606 8.89874C364.259 9.18228 366.339 8.04813 368.255 9.18229L368.14 9.72756L368.467 10.0765C366.83 10.8399 363.293 11.0581 361.296 10.3819C361.541 10.3165 361.41 10.0765 361.296 10.0765C360.854 11.0798 358.872 9.88026 358.25 11.2543C359.56 11.1889 360.886 11.9523 362.163 11.8432C362.524 11.7996 362.884 11.2325 363.244 11.2543C363.293 11.2543 363.588 11.7996 363.899 11.8432C364.8 11.9959 365.897 11.3634 366.715 11.5379C367.583 11.7342 368.418 12.6066 369.319 12.7156C370.056 12.8247 370.498 12.0831 371.709 12.4103C372.151 12.5412 372.577 13.1955 373.019 13.3045C372.856 13.2609 373.183 12.7156 373.232 12.7156C373.527 12.672 374.133 14.1552 374.1 13.021L374.313 13.1737L374.526 13.021C374.788 13.4354 375.279 13.5881 375.836 13.6099C376.409 13.6971 375.999 12.4539 376.703 12.7156C378.161 12.1485 379.716 13.719 381.485 13.3045C382.074 13.1737 382.598 12.3885 383.22 12.4103C385.021 12.4757 386.331 14.7004 388.427 13.8934C388.984 14.3078 389.426 14.8967 389.95 15.3765C390.883 15.0494 390.998 13.6535 391.898 13.3045C393.699 12.7811 394.584 14.1988 395.812 14.4823C396.188 14.5696 397.203 13.5663 397.334 14.7877L397.22 15.2239L397.334 15.6601C396.827 16.0527 396.614 16.8379 395.599 16.5543C394.977 16.5107 395.222 15.2893 394.518 15.3765C394.223 15.551 394.485 16.5107 394.092 16.5543C392.521 16.2926 392.897 16.707 392.357 18.0374C393.126 18.6699 394.927 19.4551 395.828 18.9317L395.943 19.0844L396.057 18.9317C397.105 18.4518 397.989 19.5206 399.103 19.5206C399.512 19.5206 399.807 19.0189 400.183 18.9317C401.002 18.7136 402.492 18.5391 403.229 18.6264C403.949 18.7354 404.195 19.4769 404.965 19.8041C405.096 19.8695 405.996 20.0004 406.258 20.1095C407.306 20.4585 408.862 20.3276 409.942 20.6983C411.236 21.1564 414.396 21.5272 416.017 20.6983C417.049 21.8107 419.013 20.6329 420.798 20.393C421.895 21.5926 424.122 20.9601 425.579 21.5708C425.858 21.7017 425.956 22.2905 426.234 22.465C426.775 22.7922 427.97 22.2251 427.544 23.6428C426.922 23.6864 426.054 23.3811 426.021 24.2317C428.428 24.6679 429.476 23.8173 431.883 24.5371C431.556 23.0103 429.378 23.9918 429.493 21.8761C431.179 20.6984 432.292 22.007 434.061 20.9819C437.008 22.1597 440.365 21.3963 443.836 22.1597C444.442 21.898 444.72 21.2 445.572 21.2654C445.883 21.7235 446.701 21.5054 446.652 22.4432C447.962 22.5523 449.092 22.4214 449.911 21.8543C453.415 22.8358 457.557 22.9231 460.979 23.0321C462.306 21.9198 464.483 21.4617 465.973 22.7486C468.953 20.5893 471.148 24.4934 473.571 23.6428C472.883 22.0506 473.227 20.742 472.49 19.4988L472.818 19.3461L472.703 18.9099C472.359 15.2021 468.397 19.0844 467.709 15.3548C468.921 14.526 470.935 14.8095 471.835 13.5663C471.868 14.8095 471.983 13.6317 472.277 13.5663C472.556 14.6568 473.849 14.3732 474.455 15.0494L474.684 15.9218C474.39 16.2271 474.029 16.4016 473.816 16.816C475.765 15.9872 476.764 19.6515 478.598 17.9938L478.827 18.2992C480.464 19.2153 483.002 18.2337 484.476 18.5827C483.903 19.3461 484.885 18.9971 484.902 19.7605C486.13 18.3428 488.078 19.6296 488.815 18.5827C487.816 18.0592 486.048 18.6263 485.786 17.0996L486.113 16.9469L485.999 16.5107C486.997 15.3548 489.224 17.0996 490.338 16.816L490.223 17.2523L490.551 17.405C490.681 18.67 489.634 18.321 489.241 18.8881C491.68 20.2185 495.954 20.4803 498.361 20.0659C498.901 19.9786 500.686 21.1128 499.884 18.8881H500.096V18.5827C499.998 17.7539 501.275 18.8226 501.177 17.9938L501.472 17.623L501.39 17.0996C503.519 17.3831 506.417 17.6885 509.2 17.6885C508.873 18.43 509.97 19.2807 510.51 19.7605C510.428 19.2589 510.674 19.1934 510.936 19.1716L510.821 19.6078L511.149 19.7605C511.902 21.3963 512 20.4367 513.327 20.9383C513.589 20.5893 513.408 20.1967 513.327 20.6329C512.803 20.3494 512.279 20.0876 511.804 19.7387L511.918 19.3025L511.591 19.1498C513.621 16.8161 516.552 16.6852 519.401 16.7943C520.662 16.8379 523.249 16.5325 522.872 17.3831C523.609 17.3613 524.019 16.8597 524.821 17.0778C525.083 17.165 525.279 17.8848 525.476 17.972C525.869 18.1247 526.54 17.7757 526.999 17.972C527.441 18.1465 527.703 18.779 528.079 18.8663C529.094 19.0844 530.028 18.2556 530.683 19.1716C530.29 20.5893 528.849 20.3494 528.505 20.9383C528.636 20.6766 528.767 20.4148 528.505 20.3494C527.441 21.0473 524.182 21.9634 524.166 20.0659C523.642 20.6548 522.709 19.3025 521.562 19.7605C520.564 20.9165 520.384 21.1564 518.959 20.9383C519.287 22.5959 521.268 20.8292 521.35 22.4214C522.512 21.8107 524.346 23.4684 524.608 22.1161C525.296 22.4433 525.509 22.2251 526.131 23.0103C528.014 20.7638 528.358 22.9012 530.912 23.0103C531.256 22.9012 530.716 22.4868 531.125 22.4214C531.272 23.2284 531.158 23.0976 531.78 23.5992C534.023 21.6362 536.676 26.2383 538.297 22.705C537.854 22.0725 537.592 21.2 537.216 21.2218C537.183 20.8293 538.313 20.633 537.658 20.3276C537.609 20.6548 537.445 20.5021 537.445 20.3276C538.444 19.0408 539.918 19.7387 541.129 19.1498C540.163 18.1029 539.017 18.1465 537.658 16.7943C536.987 17.0342 536.463 17.5576 535.48 17.0996C534.072 16.4235 533.352 16.4017 532.435 16.5107C532.435 16.5107 531.714 16.5543 532.222 15.9218C527.916 15.3111 525.918 18.2992 522.447 15.3329C520.515 15.3984 518.746 16.598 517.666 14.7441C516.814 15.3984 515.979 14.286 515.275 15.0494C515.521 15.1148 515.39 15.3548 515.275 15.3548C514.571 14.8313 513.932 15.5074 513.097 15.3548C512.279 15.2021 511.394 14.3733 510.494 14.177C507.547 13.5226 503.781 14.3078 500.293 13.8934C498.754 13.7189 496.134 14.1115 494.857 14.177C494.578 12.2576 491.222 12.563 489.863 12.9992C490.289 12.8683 489.028 13.5663 488.782 13.3045L488.897 12.8683L488.569 12.7156C487.472 12.0613 484.983 11.9959 482.265 11.8214C479.056 11.6251 477.255 11.9086 475.094 12.9992C474.275 12.6066 473.947 11.6687 473.145 12.6939C473.26 12.4539 473.374 12.214 473.358 11.7996C472.032 11.5597 472.081 13.2173 470.542 12.6939C470.165 12.0832 470.705 12.1049 470.329 11.5161C465.548 10.7745 460.963 10.0766 455.789 10.9272C454.725 10.3819 453.922 10.0547 453.185 11.2325C453.447 11.1889 453.578 11.2979 453.611 11.5161C452.465 12.1704 451.745 11.5597 451.221 12.9992C450.664 12.5848 448.896 13.3264 447.537 12.6939C447.635 11.756 446.865 12.0177 447.094 10.9272C447.504 10.7963 448.404 11.3416 448.175 10.3383C444.425 9.4004 443.312 10.251 439.268 9.44401L439.382 8.89874L439.022 8.68069ZM552.804 111.605C552.738 111.475 552.886 111.213 553.017 111.3C553.884 112.434 552.231 110.406 552.804 111.605ZM209.085 8.09176C208.593 8.22262 208.315 8.61523 208.217 9.26955C208.528 9.70577 209.641 9.70577 209.952 9.26955L210.067 9.70579L210.182 9.26955C211.688 9.70577 214.423 10.9926 214.963 8.68069C214.095 9.61855 212.9 8.65886 212.359 7.50289C214.161 4.4712 217.779 6.41236 219.957 7.50289C220.661 7.87367 220.121 6.54324 220.825 6.91403C221.431 7.76464 222.004 8.65889 222.56 9.57494C227.456 10.4474 232.45 8.87694 235.365 10.7527C234.219 11.4288 234.104 12.5193 234.497 14.3078C235.299 14.3078 236.085 14.3078 236.887 14.3078C236.986 12.6066 235.839 12.5848 235.807 11.058C237.198 10.2074 236.855 5.58355 239.065 7.50289C238.508 7.54651 238.23 7.93912 238.197 8.68069C239.131 10.4692 240.817 10.3601 241.881 8.37531C241.095 7.69917 240.899 9.29139 240.572 8.06999C240.195 6.65229 244.419 6.47776 244.485 4.82015C247.35 5.36542 251.591 5.38725 254.686 5.99795L254.571 6.54321L254.899 6.89219C254.899 7.08849 254.899 7.28476 254.899 7.48106L254.571 7.63375L254.686 8.06999C253.572 7.91732 252.967 8.48439 252.95 9.83665C255.193 10.4255 257.666 10.7091 259.893 11.3198C260.187 10.3383 260.99 10.0547 261.203 8.96417C262.087 9.81479 261.825 7.48104 262.512 8.96417C262.758 7.83002 263.217 6.97946 263.822 6.30333C266.442 6.19428 269.52 7.80821 273.155 7.19751C274.285 8.83331 276.397 7.61195 277.494 7.50289C277.527 6.17244 277.904 5.30001 278.575 4.84198C278.755 5.34363 280.147 5.0383 280.098 4.25312C275.628 4.05682 272.32 3.33702 268.587 3.66418C268.096 4.27488 267.818 5.19093 267.064 5.43085C266.77 4.75471 265.427 5.49627 265.329 4.5366C265.836 4.42755 266.262 4.23131 266.409 3.64242C260.318 2.24653 252.279 3.33704 245.353 3.33704C244.943 3.33704 244.894 2.8136 244.485 2.74817C244.141 2.70455 243.879 3.2716 243.404 3.33704C242.389 3.4679 241.341 2.76999 240.359 3.64242C240.113 4.07863 240.097 4.84199 239.704 5.12553C239.016 5.2564 238.852 4.71109 238.394 4.5366C238.279 5.06006 238.279 5.75805 237.968 6.01978C235.659 5.38727 233.645 2.85721 231.238 4.84198C231.058 6.47779 231.959 6.63046 232.319 7.50289C230.534 7.28478 229.454 8.94236 227.751 7.80821C227.669 9.37858 226.032 8.81156 225.36 9.57494C224.869 8.57164 223.772 8.39713 223.183 7.50289C223.215 6.25968 224.509 6.73949 224.492 5.43085C224.378 5.19093 224.263 4.951 224.28 4.5366C223.428 3.96952 222.691 4.97287 222.331 3.64242C221.496 4.8202 219.056 4.92919 217.55 4.5366C217.353 4.47117 217.37 4.20946 217.337 3.94773C215.143 5.01646 211.868 6.52142 209.74 5.12553C209.625 6.06339 209.101 6.43414 209.085 7.48106L208.97 7.78644L209.085 8.09176ZM185.425 6.91403C185.49 8.65888 186.21 7.87369 186.734 8.68069C186.26 9.79304 187.176 9.33499 186.734 10.1638C189.583 10.0111 192.138 10.6654 194.987 10.4691C195.478 10.4255 195.904 11.058 196.28 11.058C196.477 11.058 196.952 10.4909 197.148 10.4691C198.556 10.2728 200.095 11.4288 201.062 10.1638C201.716 10.6 202.928 10.8618 203.452 9.57494C202.912 8.74613 200.456 10.2947 199.981 8.39714L199.752 7.52472C200.718 7.17575 201.34 6.3251 201.7 5.16913C200.423 3.42427 198.605 4.34031 196.706 4.27488C196.117 4.25307 195.56 3.68602 194.97 3.68602C193.349 3.66421 192.269 4.75475 190.189 3.96957C189.338 3.64241 189.911 3.70784 188.667 3.96957C186.98 4.31854 185.752 4.40575 184.327 4.27488C183.689 5.03826 184.278 5.64898 183.673 6.34693C184.524 6.914 184.344 5.77985 185.195 6.34693L185.081 6.7831L185.425 6.91403ZM164.581 6.91403C162.567 4.75477 159.57 8.59345 157.409 6.91403C156.476 7.11032 156.083 8.04817 155.231 8.39714C155.1 9.9457 155.673 10.5564 155.886 11.6469C158.801 11.1235 162.125 12.7157 163.271 9.57494C163.058 9.2914 162.829 8.98604 162.616 8.68069C164.679 7.37205 166.513 8.78974 169.345 8.68069C168.936 9.20415 169.444 9.5531 169.558 10.1638C170.213 10.5564 171.212 10.4691 172.162 10.4691C172.096 8.98599 170.442 9.64035 170.213 8.39714C171.261 7.76463 171.9 6.56499 172.391 5.1473C169.607 3.40244 166.562 5.62719 164.581 6.91403ZM340.894 12.2358C340.992 11.9741 341.09 11.7123 341.336 11.6469C341.549 10.251 340.976 9.96752 340.681 9.29139C341.009 8.85517 341.336 8.39713 341.762 8.11359C341.532 7.35021 340.976 6.08516 341.549 5.1473C339.813 4.23125 337.652 4.75474 335.474 4.84198C333.034 4.95104 330.349 4.38393 328.302 5.43085C327.287 3.99134 325.732 5.51812 324.618 5.73623C321.507 3.55516 317.43 5.62717 314.843 4.84198C314.319 5.30001 313.55 5.4527 313.108 6.01978C312.911 5.58356 312.927 4.88561 312.24 5.12553C311.83 5.75804 310.16 6.21603 310.717 7.19751C310.75 6.84854 311.11 6.95763 311.372 6.89219C310.471 7.48108 311.568 7.98272 311.372 8.65886C310.782 10.7745 306.427 12.3449 305.936 8.65886C307.016 8.41894 307.311 7.52471 307.671 7.17574C307.786 7.06669 308.768 7.17573 308.752 5.99795C308.539 5.99795 308.31 5.99795 308.097 5.99795L308.212 5.56171L307.884 5.40908C307.884 5.38727 307.901 5.12551 307.884 5.1037C303.807 4.34032 300.811 4.53665 296.374 5.40908C296.341 5.95435 296.226 6.39052 295.931 6.58681C294.343 6.06335 293.377 7.00122 291.805 6.58681C291.887 5.08187 290.954 4.99464 290.07 4.82015C289.3 5.80163 289.84 6.8922 289.202 7.78644C289.071 6.97944 287.663 7.00122 287.253 7.48106C287.253 7.98271 287.253 8.46253 287.253 8.96417L286.926 9.11686L287.04 9.5531C285.6 9.11689 285.239 9.53129 283.569 9.5531C283.209 10.142 282.783 10.6437 282.046 10.7309C278.297 9.66218 274.891 9.42223 270.748 10.4255C271.076 12.672 274.187 9.61851 274.662 11.9086C276.135 11.1016 278.248 12.8029 279.443 11.6033C279.803 12.6066 282.079 12.3885 282.488 11.6033C285.73 12.5194 290.086 11.8651 292.264 12.4976L292.149 12.9337L292.477 13.0864C292.165 13.937 291.052 13.719 291.167 15.1585C291.38 15.1585 291.33 15.5292 291.379 15.7473C292.051 15.7473 294.474 16.9251 295.293 15.7473C296.03 16.5325 297.209 16.6634 297.471 15.1585C296.373 14.2206 294.654 14.5041 293.999 13.6753C294.212 11.5815 296.259 12.0395 297.683 11.9086C299.141 11.756 300.893 12.4758 302.465 12.4976C302.677 12.4976 302.628 11.9523 302.89 11.9086C305.199 11.516 307.901 13.5226 310.275 13.0864C310.733 12.9992 311.126 12.5194 311.568 12.4976C312.518 12.4321 313.075 12.6066 313.959 12.4976L313.844 13.0428L314.172 13.3918C313.844 15.8128 311.028 13.937 309.178 14.286C308.114 14.4823 307.573 15.5728 306.574 15.4638C308.67 16.4235 310.471 15.9436 312.436 16.9469C311.29 16.4671 311.503 17.8412 311.126 18.4301C309.685 18.3428 308.67 18.8227 308.081 19.9132C310.258 20.1095 312.223 23.0321 314.598 21.091L314.712 21.5272L314.827 21.091C315.318 20.7856 315.777 20.4148 316.137 19.9132C315.596 18.8445 313.943 20.3712 313.32 19.0189C313.108 18.7136 313.239 17.4049 313.533 16.9469C316.661 16.2926 319.264 16.2926 323.079 16.9469C322.997 16.249 324.062 17.0996 323.734 16.0527C323.538 15.2457 323.063 16.4671 322.441 16.0527C322.506 15.3765 322.408 14.9185 322.228 14.5695C320.656 14.0679 318.953 15.3547 318.544 13.0864C319.133 13.3045 318.986 12.4976 319.411 12.4976C319.821 12.6284 319.804 13.3482 320.492 13.0864C322.735 11.756 325.535 12.6284 327.664 12.781L327.549 13.3263L327.877 13.6753C327.877 14.5913 327.107 13.8716 326.796 14.8531C327.631 14.8095 326.878 15.093 327.009 15.7473C329.792 16.8597 332.56 16.1618 336.129 16.0309C338.34 15.9436 340.927 17.0124 342.433 15.1366C341.827 14.0025 341.549 13.7189 340.91 13.0646L341.008 12.6284L340.894 12.2358ZM354.779 8.39714C355.368 8.22265 356.498 8.76789 356.727 8.09176C356.269 8.00451 357.038 7.30662 356.514 6.91403C355.712 6.97946 355.679 7.32843 354.992 6.91403C355.09 7.63378 354.599 7.56833 354.779 8.39714ZM127.003 8.09176C126.25 8.41892 126.2 10.3383 125.267 9.85842C124.481 10.0547 124.432 9.22593 123.744 9.26955C123.302 11.6033 121.73 8.89877 121.354 11.0362C122.582 14.286 127.101 9.81481 128.083 12.8029C129.246 11.7342 130.49 10.7527 131.129 8.96417C129.77 8.63701 128.476 7.50287 127.003 8.09176ZM355.221 11.6469C356.253 11.8868 356.613 11.1889 357.612 11.3634C357.562 10.5346 356.924 10.5346 356.744 9.88025C356.482 10.8181 355.205 10.3601 355.221 11.6469ZM145.03 11.6469C144.474 11.3852 143.802 11.1671 143.507 11.9523C144.015 11.9523 144.523 11.9523 145.03 11.9523L145.145 12.3885L145.472 12.2358C145.783 12.3666 145.456 12.4976 145.472 12.8247C145.964 12.912 146.291 12.7592 146.34 12.2358C145.898 12.0613 145.914 11.3416 145.472 11.9523L145.358 11.5161L145.03 11.6469ZM119.192 11.9523C119.307 13.3046 119.078 14.1552 118.537 14.6132C119.422 14.5914 120.322 14.5477 120.928 14.9185C121.223 13.6099 120.944 12.4976 120.715 11.6687C119.978 11.9523 119.978 11.5597 119.192 11.9523ZM198.016 13.4136C198.458 13.5881 198.835 13.8716 198.671 14.8967C198.458 14.8967 198.229 14.8967 198.016 14.8967C198.016 15.7909 198.016 16.6634 198.016 17.5576C199.064 18.1029 198.966 16.9251 199.964 17.5576C200.128 16.2926 201.143 16.2053 201.258 14.8967C200.914 14.286 200.046 14.3733 199.735 13.719C200.063 13.479 200.21 12.9773 200.177 12.2358C199.883 12.2576 199.702 12.105 199.522 11.9523C199.277 13.3482 198.294 12.5848 198.016 13.4136ZM371.709 15.4856C371.513 15.3548 371.316 15.2239 371.284 14.8967C369.253 15.6601 367.845 14.1988 366.503 15.4856C365.979 14.2206 363.653 15.4202 363.031 14.3078C362.999 15.1584 362.098 14.8313 362.163 15.7909C362.966 16.7506 365.373 17.4922 365.209 15.7909C366.781 18.0811 370.269 16.4017 372.381 16.9687C372.79 17.0778 372.839 17.5358 373.249 17.5576C375.377 17.6667 377.457 17.4268 379.552 17.863C379.585 17.514 379.945 17.623 380.207 17.5576C380.207 16.1835 381.435 16.4671 381.73 15.4856C379.765 14.9185 374.689 14.1115 372.61 14.8967C372.43 14.9621 372.397 15.1803 372.168 15.2021L371.84 15.0494L371.709 15.4856ZM319.166 19.935C320.116 19.6297 319.886 20.9383 320.689 20.8292C320.983 20.4584 320.82 19.4333 321.131 19.0625C320.541 19.2806 320.689 18.4737 320.263 18.4737C320.083 19.1934 319.493 19.3898 319.166 19.935ZM567.573 22.2906C567.573 21.898 567.949 22.007 567.999 21.7017C567.458 20.9819 567.311 21.5708 566.918 20.8074C566.23 21.898 567.426 21.8761 567.573 21.9852C567.458 22.007 567.327 22.2469 567.573 22.2906ZM397.989 21.7017C397.547 21.5926 397.302 21.7671 397.334 22.2906C397.989 21.9852 398.088 22.4432 398.088 22.4432L398.415 22.2906C398.612 22.5087 398.906 22.6177 399.283 22.5959C399.217 22.116 399.496 22.0943 399.496 21.7017C398.874 21.4618 398.939 22.1161 398.415 22.007L398.202 21.8543L397.989 22.007C397.989 22.007 397.908 22.0725 397.989 21.7017ZM409.5 22.8794C409.336 21.8107 407.486 22.923 407.765 23.163C408.583 22.5305 408.207 23.7519 409.287 23.4684L409.173 23.9045L409.5 23.7519C409.828 23.4029 410.057 23.4029 410.368 23.7519C410.466 23.1194 410.057 23.1848 409.713 23.163L409.828 22.7268L409.5 22.8794ZM541.522 24.079C541.555 23.7301 541.915 23.4029 541.522 23.1848C541.26 23.5992 540.769 23.2938 540.212 22.9013C540.18 23.9482 539.901 22.9885 539.344 23.4901C539.377 23.9263 539.263 24.5807 539.557 24.6679C539.754 24.0572 541.015 24.3626 541.506 25.5622C542.292 25.3659 543.078 25.1477 544.109 25.2786C543.585 24.2971 543.896 25.1914 544.322 23.7955C543.569 23.5556 543.405 24.1226 543.012 24.3844C542.39 23.0757 542.243 23.2066 541.522 24.079ZM546.074 24.3626C547.155 24.0572 547.057 24.5152 547.057 24.5152L547.384 24.6679C547.188 25.6058 547.941 25.2786 548.039 25.8457C547.58 25.693 547.581 27.0017 547.826 26.1293C548.137 25.8675 548.514 25.693 548.481 24.9515C547.4 24.6679 547.499 24.2099 547.499 24.2099L547.171 24.0572C547.155 24.079 545.927 23.4902 546.074 24.3626ZM341.32 27.3288C341.827 26.6527 343.399 28.6593 343.71 26.74C342.941 26.5 341.336 26.4128 341.32 27.3288ZM402.116 28.2012C402.214 29.03 400.937 27.9614 401.035 28.7902C403.311 30.6005 406.045 28.6157 407.977 29.0955C407.47 27.5687 405.636 27.1325 404.293 27.6124C403.458 26.9144 402.132 26.4346 401.477 27.0235C400.855 27.1762 401.821 27.4597 401.919 27.6124L401.804 28.0485L402.116 28.2012ZM548.907 27.9177C548.497 28.223 548.072 27.5688 547.384 27.6124C547.433 28.114 547.007 28.3758 547.384 28.5066C547.924 28.2013 548.563 29.2264 549.775 29.4009C549.873 28.7902 549.627 28.6157 549.562 28.2231L549.889 28.0704L549.562 27.9177C549.562 27.5251 549.562 27.1326 549.562 26.74C548.645 26.6963 549.038 26.8926 549.349 27.3288C549.169 27.2852 549.136 27.4379 549.136 27.6124L548.809 27.4597L548.907 27.9177ZM399.299 27.0235C398.808 26.9363 398.481 27.0889 398.431 27.6124C398.775 27.5906 399.267 27.765 399.299 27.3288L399.725 27.6342C400.102 27.656 400.282 27.4161 400.38 27.0453C400.036 26.958 400.003 27.3288 399.725 27.3507L399.61 26.9144L399.299 27.0235ZM432.735 32.9342C431.539 33.3922 431.261 33.9593 430.786 34.4173C431.703 34.7445 433.291 35.4206 434.257 34.7227C433.799 32.2799 432.685 31.3856 433.815 28.8119C432.031 28.2667 431.605 28.7247 430.131 27.9177C429.018 29.9679 424.269 28.2667 423.614 29.9897C424.007 30.1642 424.515 29.1173 424.695 29.9897V30.2951H424.908C424.859 30.535 424.695 30.5786 424.695 30.884C425.334 30.9712 425.448 30.8186 425.137 30.2951H425.35V29.9897C427.2 31.8436 431.13 30.2297 432.522 32.0618L432.407 32.607L432.735 32.9342ZM553.459 30.2733C552.869 29.4445 551.428 28.8119 550.642 29.6844C550.954 29.6625 551.265 29.6407 551.297 29.9679C551.117 29.9025 551.085 30.077 551.085 30.2733C551.396 30.2515 551.707 30.2297 551.739 30.5568C552.427 30.7095 552.231 29.6407 553.049 29.9679C552.705 30.7967 553.606 31.2984 553.704 30.5568C553.884 30.7531 554.294 31.0149 554.359 30.5568C554.032 30.6223 553.524 29.5753 553.459 30.2733ZM453.136 35.9004C454.381 35.3333 454.774 36.751 456.182 35.9004C456.608 34.9626 454.364 32.9124 454.446 32.9342C454.806 33.0432 452.629 33.872 453.136 33.5231C453.398 34.0029 452.269 35.028 453.136 35.9004ZM452.056 33.2395C450.418 34.3082 447.275 32.6724 445.752 34.4173C446.047 34.6136 446.161 35.0498 446.194 35.5951C447.504 35.8568 447.504 34.3301 448.142 34.112C447.88 34.1992 448.65 34.9844 448.797 35.0062C449.239 35.028 449.289 34.6573 449.665 34.112C449.976 35.5951 452.334 33.523 452.056 33.2395ZM464.876 35.5951C465.4 34.9844 466.383 36.2931 467.054 36.4893C467.332 36.0968 467.103 34.919 466.612 34.7227C466.579 35.377 464.582 34.6354 464.876 35.5951ZM470.951 36.4893C471.131 37.5145 472.507 36.9255 472.9 37.6671L472.785 38.1033L472.9 38.5396C472.719 38.7795 472.31 38.714 472.245 39.1284C472.638 39.1721 472.376 40.1317 472.67 40.3062C473.456 40.0445 473.833 40.8297 474.193 40.3062C474.324 39.2375 473.522 39.4338 473.538 38.5396L473.309 37.6671C473.686 37.4272 473.129 35.726 473.964 36.4893C473.735 34.3519 470.951 34.9844 470.493 35.3116C470.984 35.4206 469.674 35.5951 470.705 36.2058L470.591 36.642L470.951 36.4893ZM478.336 35.5951C478.368 35.1153 479.367 36.0749 479.203 34.7009C478.598 34.4173 477.697 35.1807 478.336 35.5951ZM555.636 36.7947C556.062 36.7074 556.062 37.1873 556.291 37.3836C556.914 36.9474 557.29 37.9506 558.24 36.7947C557.47 36.9255 557.192 36.293 556.291 36.2058C556.406 36.2058 556.537 35.9659 556.291 35.9004C556.259 36.4675 555.571 36.0967 555.636 36.7947ZM562.366 39.4556C562.497 39.4338 562.628 39.412 562.579 39.1503C562.284 39.1503 562.383 38.6268 562.153 38.5613C562.383 39.1284 562.088 40.0663 562.366 39.4556ZM450.762 42.9889C449.845 43.7523 449.043 42.2473 448.159 42.0947C447.618 42.0074 446.096 42.6836 445.768 42.6836C445.719 42.6836 445.277 42.0947 445.113 42.0947C443.541 42.0292 442.608 42.6836 441.855 42.6836C440.741 42.7054 439.89 42.5745 438.809 42.6836C436.959 42.8799 435.207 41.4404 433.815 41.5058C432.997 41.5494 431.965 42.9453 431.212 42.6836C430.622 42.4873 430.655 41.7239 429.902 41.5058C427.168 41.7457 425.989 41.4622 423.827 41.8112C423.205 40.9387 421.715 40.5243 421.224 41.8112C422.223 41.9638 421.486 42.9671 422.092 43.8831C423.844 42.7272 426.3 43.9486 427.741 44.1885C428.658 44.3194 429.28 43.4251 430.344 43.2943C431.245 43.1852 432.292 43.8831 432.947 43.8831C433.504 43.8831 433.93 43.5342 434.47 43.5778C434.88 43.6215 435.289 44.0795 435.764 44.1667C437.057 44.4066 438.744 43.5342 439.677 45.0609C440.61 44.7774 442.477 44.2539 443.59 44.1667C445.539 44.014 447.324 44.3848 449.027 44.1667C449.78 44.0795 451.155 44.4939 450.762 43.2724C450.664 43.7523 450.5 43.3379 450.762 42.9889ZM460.095 45.9552C463.599 45.17 467.136 45.1918 468.56 45.3663C470.165 45.5626 472.163 46.435 473.767 45.0609C472.261 43.2288 470.378 43.556 468.331 44.7556C466.432 43.207 464.189 44.1885 462.044 44.1667C459.588 44.1449 457.23 43.5996 455.314 44.1667C456.067 44.3412 456.428 45.0173 456.837 45.6498C456.935 44.1667 457.295 46.3041 457.917 45.9334C458.048 45.2136 458.736 45.279 459.211 45.0391C459.637 45.1918 459.391 46.2169 460.095 45.9552ZM56.8737 62.226C56.8737 61.6371 57.4631 61.8552 57.3158 61.0482C56.7591 60.721 56.3497 62.0297 56.8737 62.226ZM312.01 116.338C312.846 116.84 314.303 116.796 314.401 115.444C313.288 115.858 313.009 115.182 312.01 115.749L311.683 115.597L311.568 116.033L311.781 116.186L312.01 116.338ZM418.408 118.716C419.095 118.541 419.079 119.283 419.488 118.716C419.636 117.734 419.128 117.625 418.62 117.538C418.653 117.887 418.571 118.061 418.408 118.127L418.293 117.691L418.178 118.127C417.703 118.803 417.441 117.887 416.655 118.127L416.557 117.691L416.443 118.127C416.263 117.974 416.082 117.821 415.788 117.821C415.608 118.061 415.657 118.628 415.346 118.716C414.887 117.952 414.494 118.454 414.052 118.127C414.461 119.239 415.509 119.501 416.23 120.199C416.393 119.784 417.179 118.672 417.965 119.305C417.933 118.956 418.014 118.781 418.178 118.716L418.293 119.152L418.408 118.716ZM431.654 119.894C431.85 119.087 432.325 120.308 432.964 119.894C433.16 118.541 431.785 119.326 431.441 118.716C431.703 119.457 431.326 119.632 431.654 119.894ZM426.218 118.999C426.3 117.8 425.481 119.501 425.137 119.588C425.907 119.893 427.462 119.654 428.183 120.766C428.69 118.912 430.606 121.268 431.441 119.283C431.048 118.716 429.755 117.843 429.05 118.694C429.247 118.781 430 119.501 429.493 119.588C429.312 118.279 426.84 117.843 426.218 118.999ZM457.05 121.377C457.263 120.897 457.623 120.701 457.917 121.071C458.016 120.155 457.377 120.242 457.05 119.894C457.181 120.417 456.411 121.115 457.05 121.377ZM351.521 127.287C352.683 127.636 354.631 127.68 355.859 126.698C354.386 125.826 353.223 126.437 351.521 127.287ZM301.155 127.593C301.564 127.462 302.465 127.985 302.235 127.004C301.679 127.026 301.204 127.178 300.942 127.593L300.614 127.44L300.5 127.876C300.32 128.138 299.91 128.051 299.845 128.465C300.467 128.509 300.827 129.665 300.925 128.16L301.253 128.007L301.155 127.593ZM349.998 128.77C350.554 128.749 351.029 128.596 351.308 128.182C350.489 128.203 350.505 127.091 349.785 127.004C349.425 127.462 349.867 128.138 349.998 128.77ZM392.128 129.054C392.815 129.185 393.012 128.683 393.208 128.16C392.537 128.378 392.783 128.378 392.128 128.16C392.128 128.465 392.128 128.77 392.128 129.054ZM537.609 129.054C537.887 129.076 537.904 129.425 538.264 129.359C538.231 129.01 538.297 128.509 538.051 128.465C538.035 128.858 537.658 128.749 537.609 129.054ZM374.968 129.665C375.312 128.269 376.048 129.272 374.968 129.665V129.665ZM411.678 130.537C412.087 130.472 412.153 130.864 412.546 130.842C413.397 129.468 411.596 128.77 411.678 130.537ZM427.528 131.126C427.839 131.584 428.641 131.388 429.263 131.431C429.427 130.057 427.675 130.428 427.528 131.126ZM433.16 132.609C432.505 133.612 433.963 133.503 433.16 132.609V132.609ZM458.572 134.376C459.08 134.289 459.408 134.419 459.653 134.681C459.817 134.376 460.505 133.307 459.866 132.915C459.489 133.46 458.441 133.133 458.572 134.376ZM454.004 135.575C454.495 135.815 455.461 135.248 454.872 134.987C454.872 135.292 454.495 135.357 454.446 134.987C454.561 134.987 454.692 134.747 454.446 134.703C454.397 135.117 454.086 135.183 454.004 135.575ZM344.791 137.059C345.364 137.277 345.462 138.127 346.101 138.236C346.51 138.105 346.641 137.604 347.181 137.647C347.329 134.812 345.544 136.361 344.791 137.059ZM327.205 137.931C327.254 137.582 327.451 137.756 327.647 137.931C327.582 137.342 327.942 137.342 328.073 137.037C327.68 137.037 326.681 137.669 327.205 137.931ZM277.478 138.236C277.625 138.236 277.773 138.236 277.904 138.236C277.92 137.866 278.182 137.822 278.117 137.342C277.969 137.342 277.822 137.342 277.691 137.342C277.691 137.735 277.429 137.756 277.478 138.236ZM373.019 138.52C373.478 138.345 374.444 138.891 374.542 138.214C374.182 137.822 373.822 137.429 373.019 137.626L372.692 137.473L372.806 137.909C372.463 137.931 371.988 137.756 371.939 138.214C372.07 138.302 372.774 138.956 372.806 138.214L372.921 138.367L373.019 138.52ZM435.125 142.38C435.453 142.838 436.009 142.598 436.206 142.075C435.878 141.922 435.666 141.639 435.338 141.486C435.354 141.901 435.24 142.14 435.125 142.38Z" fill="#FCFCFF"/>
</svg>
